<svg width="24" height="24" viewBox="0 0 24 24" fill="none" xmlns="http://www.w3.org/2000/svg">
<rect width="24" height="24" fill="white"/>
<path d="M21 7.35303V16.647C21 16.8649 20.8819 17.0656 20.6914 17.1715L12.2914 21.8381C12.1102 21.9388 11.8898 21.9388 11.7086 21.8381L3.30861 17.1715C3.11814 17.0656 3 16.8649 3 16.647L2.99998 7.35303C2.99998 7.13513 3.11812 6.93436 3.3086 6.82854L11.7086 2.16187C11.8898 2.0612 12.1102 2.0612 12.2914 2.16187L20.6914 6.82854C20.8818 6.93436 21 7.13513 21 7.35303Z" stroke="black" stroke-width="1.5" stroke-linecap="round" stroke-linejoin="round"/>
<path d="M3.52844 7.29357L11.7086 11.8381C11.8898 11.9388 12.1102 11.9388 12.2914 11.8381L20.5 7.27777" stroke="black" stroke-width="1.5" stroke-linecap="round" stroke-linejoin="round"/>
<path d="M12 21V12" stroke="black" stroke-width="1.5" stroke-linecap="round" stroke-linejoin="round"/>
<path d="M11.6914 11.8285L3.89139 7.49519C3.49147 7.27302 3 7.5622 3 8.01969V16.647C3 16.8649 3.11813 17.0656 3.30861 17.1715L11.1086 21.5048C11.5085 21.727 12 21.4378 12 20.9803V12.353C12 12.1351 11.8819 11.9344 11.6914 11.8285Z" fill="black" stroke="black" stroke-width="1.5" stroke-linejoin="round"/>
</svg>
