<svg width="24" height="24" viewBox="0 0 24 24" fill="none" xmlns="http://www.w3.org/2000/svg">
<path d="M18 6H20M22 6H20M20 6V4M20 6V8" stroke="black" stroke-width="1.5" stroke-linecap="round" stroke-linejoin="round"/>
<path d="M18.8 20H5.2C4.0799 20 3.51984 20 3.09202 19.782C2.71569 19.5903 2.40973 19.2843 2.21799 18.908C2 18.4802 2 17.9201 2 16.8V14.2C2 13.0799 2 12.5198 2.21799 12.092C2.40973 11.7157 2.71569 11.4097 3.09202 11.218C3.51984 11 4.0799 11 5.2 11H18.8C19.9201 11 20.4802 11 20.908 11.218C21.2843 11.4097 21.5903 11.7157 21.782 12.092C22 12.5198 22 13.0799 22 14.2V16.8C22 17.9201 22 18.4802 21.782 18.908C21.5903 19.2843 21.2843 19.5903 20.908 19.782C20.4802 20 19.9201 20 18.8 20Z" stroke="black" stroke-width="1.5" stroke-linecap="round" stroke-linejoin="round"/>
<path d="M2 14.5V7.2C2 6.0799 2 5.51984 2.21799 5.09202C2.40973 4.71569 2.71569 4.40973 3.09202 4.21799C3.51984 4 4.0799 4 5.2 4H7.81624C8.25444 4 8.47354 4 8.68213 4.04502C8.86716 4.08496 9.04557 4.15096 9.21204 4.24105C9.39972 4.34261 9.56607 4.4852 9.89878 4.77038L11.6012 6.22962C11.9339 6.5148 12.1003 6.65739 12.288 6.75895C12.4544 6.84904 12.6328 6.91504 12.8179 6.95498C13.0265 7 13.2456 7 13.6838 7H14" stroke="black" stroke-width="1.5" stroke-linecap="round" stroke-linejoin="round"/>
</svg>
