<svg width="24" height="24" viewBox="0 0 24 24" fill="none" xmlns="http://www.w3.org/2000/svg">
<rect width="24" height="24" fill="white"/>
<path d="M14.1207 14.1213C15.2922 12.9497 15.2922 11.0503 14.1207 9.87868C12.9491 8.70711 11.0496 8.70711 9.87804 9.87868C8.70647 11.0503 8.70647 12.9497 9.87804 14.1213C11.0496 15.2929 12.9491 15.2929 14.1207 14.1213Z" stroke="black" stroke-width="1.5" stroke-miterlimit="1.5" stroke-linecap="round" stroke-linejoin="round"/>
<path fill-rule="evenodd" clip-rule="evenodd" d="M9.87868 9.8786C9.87868 9.8786 7.07642 9.88779 5.63604 8.46438C4.22749 7.05441 2.77156 5.6706 4.22183 4.22174C5.59998 2.84501 7.03117 4.20689 8.46447 5.63596C9.8702 7.03744 9.87868 9.8786 9.87868 9.8786Z" stroke="black" stroke-width="1.5" stroke-miterlimit="1.5" stroke-linecap="round" stroke-linejoin="round"/>
<path fill-rule="evenodd" clip-rule="evenodd" d="M14.1214 9.87866C14.1214 9.87866 14.1122 7.0764 15.5356 5.63602C16.9456 4.22747 18.3294 2.77154 19.7782 4.22181C21.155 5.59996 19.7931 7.03115 18.364 8.46445C16.9625 9.87018 14.1214 9.87866 14.1214 9.87866Z" stroke="black" stroke-width="1.5" stroke-miterlimit="1.5" stroke-linecap="round" stroke-linejoin="round"/>
<path fill-rule="evenodd" clip-rule="evenodd" d="M9.87863 14.1213C9.87863 14.1213 9.88782 16.9236 8.46441 18.364C7.05444 19.7725 5.67063 21.2284 4.22177 19.7782C2.84504 18.4 4.20692 16.9688 5.63599 15.5355C7.03747 14.1298 9.87863 14.1213 9.87863 14.1213Z" stroke="black" stroke-width="1.5" stroke-miterlimit="1.5" stroke-linecap="round" stroke-linejoin="round"/>
<path fill-rule="evenodd" clip-rule="evenodd" d="M14.1213 14.1214C14.1213 14.1214 16.9236 14.1122 18.364 15.5356C19.7725 16.9456 21.2284 18.3294 19.7782 19.7782C18.4 21.155 16.9688 19.7931 15.5355 18.364C14.1298 16.9625 14.1213 14.1214 14.1213 14.1214Z" stroke="black" stroke-width="1.5" stroke-miterlimit="1.5" stroke-linecap="round" stroke-linejoin="round"/>
</svg>
