<svg width="24" height="24" viewBox="0 0 24 24" fill="none" xmlns="http://www.w3.org/2000/svg">
<rect width="24" height="24" fill="white"/>
<path d="M12.1471 21.2646L12 21.2351L11.8529 21.2646C9.47627 21.7399 7.23257 21.4756 5.59352 20.1643C3.96312 18.86 2.75 16.374 2.75 12C2.75 7.52686 3.75792 5.70957 5.08541 5.04583C5.77977 4.69865 6.67771 4.59761 7.82028 4.72945C8.96149 4.86113 10.2783 5.21671 11.7628 5.71155L12.0235 5.79843L12.2785 5.6964C14.7602 4.70369 16.9909 4.32342 18.5578 5.05465C20.0271 5.74032 21.25 7.59328 21.25 12C21.25 16.374 20.0369 18.86 18.4065 20.1643C16.7674 21.4756 14.5237 21.7399 12.1471 21.2646Z" stroke="black" stroke-width="1.5"/>
<path d="M12 5.5C12 3 11 2 9 2" stroke="black" stroke-width="1.5" stroke-linecap="round" stroke-linejoin="round"/>
<path d="M12 6V21" stroke="black" stroke-width="1.5"/>
<path d="M15 12V14" stroke="black" stroke-width="1.5" stroke-linecap="round" stroke-linejoin="round"/>
</svg>
