<svg width="24" height="24" viewBox="0 0 24 24" fill="none" xmlns="http://www.w3.org/2000/svg">
<rect width="24" height="24" fill="white"/>
<path d="M4.40434 13.6099C3.51517 13.1448 3 12.5924 3 12C3 10.3431 7.02944 9 12 9C16.9706 9 21 10.3431 21 12C21 12.7144 20.2508 13.3705 19 13.8858" stroke="black" stroke-width="1.5" stroke-linecap="round" stroke-linejoin="round"/>
<path d="M12 11.01L12.01 10.9989" stroke="black" stroke-width="1.5" stroke-linecap="round" stroke-linejoin="round"/>
<path d="M16.8827 5.99998C16.878 4.977 16.6199 4.25307 16.0856 3.98082C14.6093 3.22862 11.5832 6.2091 9.32664 10.6379C7.07005 15.0667 6.43747 19.2668 7.91374 20.019C8.44117 20.2877 9.16642 20.08 9.98372 19.5" stroke="black" stroke-width="1.5" stroke-linecap="round" stroke-linejoin="round"/>
<path d="M9.60093 4.25166C8.94057 3.86581 8.3572 3.75491 7.9137 3.98088C6.43743 4.73308 7.07 8.93311 9.32659 13.3619C11.5832 17.7907 14.6092 20.7712 16.0855 20.019C17.3977 19.3504 17.0438 15.9577 15.3641 12.1016" stroke="black" stroke-width="1.5" stroke-linecap="round" stroke-linejoin="round"/>
</svg>
