<svg width="24" height="24" viewBox="0 0 24 24" fill="none" xmlns="http://www.w3.org/2000/svg">
<g clip-path="url(#clip0_1_6558)">
<path d="M24 0H0V24H24V0Z" fill="white"/>
<path d="M10.8334 9L10.0563 11.7972C10.0372 11.8661 10.0276 11.9006 10.0355 11.9278C10.0424 11.9516 10.0579 11.9721 10.0791 11.9851C10.1032 12 10.139 12 10.2105 12H11.7895C11.861 12 11.8968 12 11.9209 12.0149C11.9421 12.0279 11.9576 12.0484 11.9645 12.0722C11.9724 12.0994 11.9628 12.1339 11.9437 12.2028L11.1666 15" stroke="black" stroke-linecap="round" stroke-linejoin="round"/>
<path d="M22.75 10V14C22.75 14.3266 22.5413 14.6044 22.25 14.7073V9.29268C22.5413 9.39564 22.75 9.67345 22.75 10Z" stroke="black" stroke-width="0.5"/>
<rect x="1" y="6" width="20" height="12" rx="3" stroke="black" stroke-width="1.5"/>
</g>
<defs>
<clipPath id="clip0_1_6558">
<rect width="24" height="24" fill="white"/>
</clipPath>
</defs>
</svg>
