<svg width="24" height="24" viewBox="0 0 24 24" fill="none" xmlns="http://www.w3.org/2000/svg">
<g clip-path="url(#clip0_1_6548)">
<path d="M24 0H0V24H24V0Z" fill="white"/>
<path d="M23.75 10V14C23.75 14.3266 23.5413 14.6044 23.25 14.7073V9.29268C23.5413 9.39564 23.75 9.67345 23.75 10Z" stroke="black" stroke-width="0.5"/>
<rect x="2" y="6" width="20" height="12" rx="3" stroke="black" stroke-width="1.5"/>
<path d="M3 10.2C3 9.07989 3 8.51984 3.21799 8.09202C3.40973 7.71569 3.71569 7.40973 4.09202 7.21799C4.51984 7 5.07989 7 6.2 7H9.8C10.9201 7 11.4802 7 11.908 7.21799C12.2843 7.40973 12.5903 7.71569 12.782 8.09202C13 8.51984 13 9.07989 13 10.2V13.8C13 14.9201 13 15.4802 12.782 15.908C12.5903 16.2843 12.2843 16.5903 11.908 16.782C11.4802 17 10.9201 17 9.8 17H6.2C5.07989 17 4.51984 17 4.09202 16.782C3.71569 16.5903 3.40973 16.2843 3.21799 15.908C3 15.4802 3 14.9201 3 13.8V10.2Z" fill="black"/>
</g>
<defs>
<clipPath id="clip0_1_6548">
<rect width="24" height="24" fill="white"/>
</clipPath>
</defs>
</svg>
