<svg width="24" height="24" viewBox="0 0 24 24" fill="none" xmlns="http://www.w3.org/2000/svg">
<g clip-path="url(#clip0_1_6572)">
<path d="M24 0H0V24H24V0Z" fill="white"/>
<path d="M1 16V8C1 6.89543 1.94256 6 3.10526 6H18.8947C20.0575 6 21 6.89543 21 8V16C21 17.1046 20.0575 18 18.8947 18H3.10526C1.94256 18 1 17.1046 1 16Z" stroke="black" stroke-width="1.5"/>
<path d="M3 9.6C3 9.03995 3 8.75992 3.11808 8.54601C3.22194 8.35785 3.38767 8.20487 3.59151 8.10899C3.82325 8 4.12661 8 4.73333 8H14.2667C14.8734 8 15.1768 8 15.4085 8.10899C15.6123 8.20487 15.7781 8.35785 15.8819 8.54601C16 8.75992 16 9.03995 16 9.6V14.4C16 14.9601 16 15.2401 15.8819 15.454C15.7781 15.6422 15.6123 15.7951 15.4085 15.891C15.1768 16 14.8734 16 14.2667 16H4.73333C4.12661 16 3.82325 16 3.59151 15.891C3.38767 15.7951 3.22194 15.6422 3.11808 15.454C3 15.2401 3 14.9601 3 14.4V9.6Z" fill="black"/>
<path d="M22.75 10V14C22.75 14.3266 22.5413 14.6044 22.25 14.7073V9.29268C22.5413 9.39564 22.75 9.67345 22.75 10Z" stroke="black" stroke-width="0.5"/>
</g>
<defs>
<clipPath id="clip0_1_6572">
<rect width="24" height="24" fill="white"/>
</clipPath>
</defs>
</svg>
