<svg width="24" height="24" viewBox="0 0 24 24" fill="none" xmlns="http://www.w3.org/2000/svg">
<g clip-path="url(#clip0_1_6567)">
<path d="M24 0H0V24H24V0Z" fill="white"/>
<path d="M1 16V8C1 6.89543 1.94256 6 3.10526 6H18.8947C20.0575 6 21 6.89543 21 8V16C21 17.1046 20.0575 18 18.8947 18H3.10526C1.94256 18 1 17.1046 1 16Z" stroke="black" stroke-width="1.5"/>
<path d="M3 9.6C3 9.03995 3 8.75992 3.11626 8.54601C3.21852 8.35785 3.3817 8.20487 3.58241 8.10899C3.81058 8 4.10928 8 4.70667 8H17.2933C17.8907 8 18.1894 8 18.4176 8.10899C18.6183 8.20487 18.7815 8.35785 18.8837 8.54601C19 8.75992 19 9.03995 19 9.6V14.4C19 14.9601 19 15.2401 18.8837 15.454C18.7815 15.6422 18.6183 15.7951 18.4176 15.891C18.1894 16 17.8907 16 17.2933 16H4.70667C4.10928 16 3.81058 16 3.58241 15.891C3.3817 15.7951 3.21852 15.6422 3.11626 15.454C3 15.2401 3 14.9601 3 14.4V9.6Z" fill="black"/>
<path d="M22.75 10V14C22.75 14.3266 22.5413 14.6044 22.25 14.7073V9.29268C22.5413 9.39564 22.75 9.67345 22.75 10Z" stroke="black" stroke-width="0.5"/>
</g>
<defs>
<clipPath id="clip0_1_6567">
<rect width="24" height="24" fill="white"/>
</clipPath>
</defs>
</svg>
