<svg width="24" height="24" viewBox="0 0 24 24" fill="none" xmlns="http://www.w3.org/2000/svg">
<g clip-path="url(#clip0_1_6558)">
<path d="M24 0H0V24H24V0Z" fill="white"/>
<path d="M1 16V8C1 6.89543 1.94256 6 3.10526 6H18.8947C20.0575 6 21 6.89543 21 8V16C21 17.1046 20.0575 18 18.8947 18H3.10526C1.94256 18 1 17.1046 1 16Z" stroke="black" stroke-width="1.5"/>
<path d="M11.25 9L10.0923 11.7785C10.0614 11.8525 10.046 11.8896 10.0519 11.9194C10.057 11.9454 10.0723 11.9683 10.0944 11.9831C10.1196 12 10.1598 12 10.24 12H12.76C12.8402 12 12.8804 12 12.9056 12.0169C12.9277 12.0317 12.943 12.0546 12.9481 12.0806C12.954 12.1104 12.9386 12.1475 12.9077 12.2215L11.75 15" stroke="black" stroke-width="1.5" stroke-linecap="round" stroke-linejoin="round"/>
<path d="M22.75 10V14C22.75 14.3266 22.5413 14.6044 22.25 14.7073V9.29268C22.5413 9.39564 22.75 9.67345 22.75 10Z" stroke="black" stroke-width="0.5"/>
</g>
<defs>
<clipPath id="clip0_1_6558">
<rect width="24" height="24" fill="white"/>
</clipPath>
</defs>
</svg>
