<svg width="24" height="24" viewBox="0 0 24 24" fill="none" xmlns="http://www.w3.org/2000/svg">
<g clip-path="url(#clip0_1_6558)">
<path d="M24 0H0V24H24V0Z" fill="white"/>
<path d="M1 16V8C1 6.89543 1.94256 6 3.10526 6H18.8947C20.0575 6 21 6.89543 21 8V16C21 17.1046 20.0575 18 18.8947 18H3.10526C1.94256 18 1 17.1046 1 16Z" stroke="black" stroke-width="1.5"/>
<path d="M10.2501 8.99805L9.09236 11.7765C9.06149 11.8506 9.04606 11.8876 9.05194 11.9174C9.05708 11.9435 9.07237 11.9664 9.09444 11.9812C9.11968 11.998 9.1598 11.998 9.24005 11.998H11.76C11.8403 11.998 11.8804 11.998 11.9057 12.0149C11.9277 12.0297 11.943 12.0526 11.9482 12.0787C11.954 12.1085 11.9386 12.1455 11.9077 12.2196L10.75 14.998" stroke="black" stroke-width="1.5" stroke-linecap="round" stroke-linejoin="round"/>
<path d="M22.75 10V14C22.75 14.3266 22.5413 14.6044 22.25 14.7073V9.29268C22.5413 9.39564 22.75 9.67345 22.75 10Z" stroke="black" stroke-width="0.5"/>
</g>
<defs>
<clipPath id="clip0_1_6558">
<rect width="24" height="24" fill="white"/>
</clipPath>
</defs>
</svg>
