<svg width="24" height="24" viewBox="0 0 24 24" fill="none" xmlns="http://www.w3.org/2000/svg">
<g clip-path="url(#clip0_1_6548)">
<path d="M24 0H0V24H24V0Z" fill="white"/>
<path d="M1 16V8C1 6.89543 1.94256 6 3.10526 6H18.8947C20.0575 6 21 6.89543 21 8V16C21 17.1046 20.0575 18 18.8947 18H3.10526C1.94256 18 1 17.1046 1 16Z" stroke="black" stroke-width="1.5"/>
<path d="M3 9.6C3 9.03995 3 8.75992 3.12456 8.54601C3.23413 8.35785 3.40897 8.20487 3.62401 8.10899C3.86848 8 4.18851 8 4.82857 8H9.17143C9.81149 8 10.1315 8 10.376 8.10899C10.591 8.20487 10.7659 8.35785 10.8754 8.54601C11 8.75992 11 9.03995 11 9.6V14.4C11 14.9601 11 15.2401 10.8754 15.454C10.7659 15.6422 10.591 15.7951 10.376 15.891C10.1315 16 9.81149 16 9.17143 16H4.82857C4.18851 16 3.86848 16 3.62401 15.891C3.40897 15.7951 3.23413 15.6422 3.12456 15.454C3 15.2401 3 14.9601 3 14.4V9.6Z" fill="black"/>
<path d="M22.75 10V14C22.75 14.3266 22.5413 14.6044 22.25 14.7073V9.29268C22.5413 9.39564 22.75 9.67345 22.75 10Z" stroke="black" stroke-width="0.5"/>
</g>
<defs>
<clipPath id="clip0_1_6548">
<rect width="24" height="24" fill="white"/>
</clipPath>
</defs>
</svg>
