<svg width="24" height="24" viewBox="0 0 24 24" fill="none" xmlns="http://www.w3.org/2000/svg">
<g clip-path="url(#clip0_1_6572)">
<path d="M24 0H0V24H24V0Z" fill="white"/>
<path d="M22 10V14" stroke="black" stroke-width="1.5" stroke-linecap="round" stroke-linejoin="round"/>
<path d="M1 16V8C1 6.89543 1.89543 6 3 6H18C19.1046 6 20 6.89543 20 8V16C20 17.1046 19.1046 18 18 18H3C1.89543 18 1 17.1046 1 16Z" stroke="black" stroke-width="1.5"/>
<path d="M3 9.6C3 9.03995 3 8.75992 3.10899 8.54601C3.20487 8.35785 3.35785 8.20487 3.54601 8.10899C3.75992 8 4.03995 8 4.6 8H13.4C13.9601 8 14.2401 8 14.454 8.10899C14.6422 8.20487 14.7951 8.35785 14.891 8.54601C15 8.75992 15 9.03995 15 9.6V14.4C15 14.9601 15 15.2401 14.891 15.454C14.7951 15.6422 14.6422 15.7951 14.454 15.891C14.2401 16 13.9601 16 13.4 16H4.6C4.03995 16 3.75992 16 3.54601 15.891C3.35785 15.7951 3.20487 15.6422 3.10899 15.454C3 15.2401 3 14.9601 3 14.4V9.6Z" fill="black"/>
</g>
<defs>
<clipPath id="clip0_1_6572">
<rect width="24" height="24" fill="white"/>
</clipPath>
</defs>
</svg>
