<svg width="24" height="24" viewBox="0 0 24 24" fill="none" xmlns="http://www.w3.org/2000/svg">
<rect width="24" height="24" fill="white"/>
<path d="M2.76924 13L2.13718 9.71331C2.06602 9.34327 2.34957 9 2.72639 9H21.2736C21.6504 9 21.934 9.34327 21.8628 9.71331L21.2308 13M2.76924 13H21.2308M2.76924 13L3.38463 17M21.2308 13L20.6154 17M3.38463 17L3.92174 20.4912C3.96677 20.7839 4.21862 21 4.51476 21H19.4852C19.7814 21 20.0332 20.7839 20.0783 20.4912L20.6154 17M3.38463 17H20.6154" stroke="black" stroke-width="1.5"/>
<path d="M8 9V5C8 3.89543 8.89543 3 10 3H14C15.1046 3 16 3.89543 16 5V9" stroke="black" stroke-width="1.5"/>
</svg>
