<svg width="24" height="24" viewBox="0 0 24 24" fill="none" xmlns="http://www.w3.org/2000/svg">
<rect width="24" height="24" fill="white"/>
<path d="M7 17H17" stroke="black" stroke-width="1.5" stroke-linecap="round"/>
<path d="M9 12H15" stroke="black" stroke-width="1.5" stroke-linecap="round"/>
<path d="M12 3V2" stroke="black" stroke-width="1.5" stroke-linecap="round"/>
<path d="M11.5544 3.58153C10.633 4.83329 8.63764 7.82529 9.05721 9.75002C9.45139 11.5583 11.019 12 12 12C12.981 12 14.5486 11.5583 14.9428 9.75002C15.3624 7.82529 13.367 4.83329 12.4456 3.58153C12.2207 3.27596 11.7793 3.27596 11.5544 3.58153Z" stroke="black" stroke-width="1.5" stroke-linecap="round"/>
<path d="M17.8 22H6.19999C5.70556 22 5.41558 21.434 5.70049 21.0299C7.01606 19.1641 9.76292 15.044 10.1929 12.5964C10.2502 12.27 10.5186 12 10.85 12H13.15C13.4814 12 13.7498 12.27 13.8071 12.5963C14.237 15.044 16.9839 19.1641 18.2995 21.0299C18.5844 21.434 18.2944 22 17.8 22Z" stroke="black" stroke-width="1.5" stroke-linecap="round"/>
</svg>
