<svg width="24" height="24" viewBox="0 0 24 24" fill="none" xmlns="http://www.w3.org/2000/svg">
<rect width="24" height="24" fill="white"/>
<path d="M2.6954 7.18536L11.6954 11.1854L12.3046 9.81464L3.3046 5.81464L2.6954 7.18536ZM12.75 21.5V10.5H11.25V21.5H12.75ZM12.3046 11.1854L21.3046 7.18536L20.6954 5.81464L11.6954 9.81464L12.3046 11.1854Z" fill="black"/>
<path d="M3 17.1101V6.88991C3 6.6528 3.13964 6.43793 3.35632 6.34163L11.7563 2.60829C11.9115 2.53934 12.0885 2.53934 12.2437 2.60829L20.6437 6.34163C20.8604 6.43793 21 6.6528 21 6.88991V17.1101C21 17.3472 20.8604 17.5621 20.6437 17.6584L12.2437 21.3917C12.0885 21.4606 11.9115 21.4606 11.7563 21.3917L3.35632 17.6584C3.13964 17.5621 3 17.3472 3 17.1101Z" stroke="black" stroke-width="1.5" stroke-linecap="round" stroke-linejoin="round"/>
<path d="M7.5 4.5L16.1437 8.34164C16.3604 8.43794 16.5 8.65281 16.5 8.88992V12.5" stroke="black" stroke-width="1.5" stroke-linecap="round" stroke-linejoin="round"/>
</svg>
