<svg width="24" height="24" viewBox="0 0 24 24" fill="none" xmlns="http://www.w3.org/2000/svg">
<rect width="24" height="24" fill="white"/>
<path d="M12 21H4C2.89543 21 2 20.1046 2 19V5C2 3.89543 2.89543 3 4 3H20C21.1046 3 22 3.89543 22 5V12" stroke="black" stroke-width="1.5" stroke-linecap="round"/>
<path d="M13 6.01001L13.01 5.9989" stroke="black" stroke-width="1.5" stroke-linecap="round" stroke-linejoin="round"/>
<path d="M16 6.01001L16.01 5.9989" stroke="black" stroke-width="1.5" stroke-linecap="round" stroke-linejoin="round"/>
<path d="M19 6.01001L19.01 5.9989" stroke="black" stroke-width="1.5" stroke-linecap="round" stroke-linejoin="round"/>
<path d="M17.1125 14.7563C17.3381 14.5641 17.4509 14.468 17.5688 14.4116C17.8415 14.2813 18.1585 14.2813 18.4312 14.4116C18.5491 14.468 18.6619 14.5641 18.8875 14.7563C18.9773 14.8328 19.0221 14.8711 19.0701 14.9032C19.18 14.9768 19.3034 15.028 19.4331 15.0536C19.4898 15.0648 19.5485 15.0695 19.6661 15.0788C19.9615 15.1024 20.1092 15.1142 20.2324 15.1577C20.5174 15.2584 20.7416 15.4826 20.8423 15.7676C20.8858 15.8908 20.8976 16.0385 20.9212 16.3339C20.9305 16.4515 20.9352 16.5102 20.9464 16.5669C20.972 16.6966 21.0232 16.82 21.0968 16.9299C21.1289 16.9779 21.1672 17.0227 21.2437 17.1125C21.4359 17.3381 21.532 17.4509 21.5884 17.5688C21.7187 17.8415 21.7187 18.1585 21.5884 18.4312C21.532 18.5491 21.4359 18.6619 21.2437 18.8875C21.1672 18.9773 21.1289 19.0221 21.0968 19.0701C21.0232 19.18 20.972 19.3034 20.9464 19.4331C20.9352 19.4898 20.9305 19.5485 20.9212 19.6661C20.8976 19.9615 20.8858 20.1092 20.8423 20.2324C20.7416 20.5174 20.5174 20.7416 20.2324 20.8423C20.1092 20.8858 19.9615 20.8976 19.6661 20.9212C19.5485 20.9305 19.4898 20.9352 19.4331 20.9464C19.3034 20.972 19.18 21.0232 19.0701 21.0968C19.0221 21.1289 18.9773 21.1672 18.8875 21.2437C18.6619 21.4359 18.5491 21.532 18.4312 21.5884C18.1585 21.7187 17.8415 21.7187 17.5688 21.5884C17.4509 21.532 17.3381 21.4359 17.1125 21.2437C17.0227 21.1672 16.9779 21.1289 16.9299 21.0968C16.82 21.0232 16.6966 20.972 16.5669 20.9464C16.5102 20.9352 16.4515 20.9305 16.3339 20.9212C16.0385 20.8976 15.8908 20.8858 15.7676 20.8423C15.4826 20.7416 15.2584 20.5174 15.1577 20.2324C15.1142 20.1092 15.1024 19.9615 15.0788 19.6661C15.0695 19.5485 15.0648 19.4898 15.0536 19.4331C15.028 19.3034 14.9768 19.18 14.9032 19.0701C14.8711 19.0221 14.8328 18.9773 14.7563 18.8875C14.5641 18.6619 14.468 18.5491 14.4116 18.4312C14.2813 18.1585 14.2813 17.8415 14.4116 17.5688C14.468 17.4509 14.5641 17.3381 14.7563 17.1125C14.8328 17.0227 14.8711 16.9779 14.9032 16.9299C14.9768 16.82 15.028 16.6966 15.0536 16.5669C15.0648 16.5102 15.0695 16.4515 15.0788 16.3339C15.1024 16.0385 15.1142 15.8908 15.1577 15.7676C15.2584 15.4826 15.4826 15.2584 15.7676 15.1577C15.8908 15.1142 16.0385 15.1024 16.3339 15.0788C16.4515 15.0695 16.5102 15.0648 16.5669 15.0536C16.6966 15.028 16.82 14.9768 16.9299 14.9032C16.9779 14.8711 17.0227 14.8328 17.1125 14.7563Z" stroke="black" stroke-width="1.5"/>
<path d="M16.7754 20.9564L18 22V14L16.7754 15.0436L15.1716 15.1716L15.0436 16.7754L14 18L15.0436 19.2246L15.1716 20.8284L16.7754 20.9564Z" fill="black"/>
</svg>
