<svg width="24" height="24" viewBox="0 0 24 24" fill="none" xmlns="http://www.w3.org/2000/svg">
<rect width="24" height="24" fill="white"/>
<path d="M7.00001 13.161L12.4644 7.69658C12.8549 7.30605 13.4881 7.30605 13.8786 7.69658L15.9999 9.8179C16.3904 10.2084 16.3904 10.8416 15.9999 11.2321L14.0711 13.161M7.00001 13.161L4.82765 15.3334C4.73429 15.4267 4.66035 15.5376 4.61008 15.6597L3.58205 18.1563C3.07439 19.3892 4.30729 20.6221 5.54019 20.1145L8.03682 19.0865C8.15891 19.0362 8.26982 18.9622 8.36318 18.8689L14.0711 13.161M7.00001 13.161H14.0711" stroke="black" stroke-width="1.5" stroke-linecap="round" stroke-linejoin="round"/>
<path d="M13.878 3.45398L15.9993 5.5753M15.9993 5.5753L17.4135 4.16109C17.8041 3.77057 18.4372 3.77057 18.8277 4.16109L19.5349 4.8682C19.9254 5.25872 19.9254 5.89189 19.5349 6.28241L18.1206 7.69663M15.9993 5.5753L18.1206 7.69663M20.242 9.81795L18.1206 7.69663" stroke="black" stroke-width="1.5" stroke-linecap="round" stroke-linejoin="round"/>
</svg>
