<svg width="24" height="24" viewBox="0 0 24 24" fill="none" xmlns="http://www.w3.org/2000/svg">
<rect width="24" height="24" fill="white"/>
<path d="M13.8787 7.69658L16 9.8179C16.3906 10.2084 16.3906 10.8416 16 11.2321L8.36328 18.8689C8.26993 18.9622 8.15901 19.0362 8.03693 19.0865L5.5403 20.1145C4.30739 20.6221 3.07449 19.3892 3.58215 18.1563L4.61018 15.6597C4.66045 15.5376 4.73439 15.4267 4.82775 15.3334L12.4645 7.69658C12.855 7.30605 13.4882 7.30605 13.8787 7.69658Z" stroke="black" stroke-width="1.5" stroke-linecap="round" stroke-linejoin="round"/>
<path d="M13.8787 3.45398L16.0001 5.5753M16.0001 5.5753L17.4143 4.16109C17.8048 3.77057 18.438 3.77057 18.8285 4.16109L19.5356 4.8682C19.9261 5.25872 19.9261 5.89189 19.5356 6.28241L18.1214 7.69662M16.0001 5.5753L18.1214 7.69662M20.2427 9.81794L18.1214 7.69662" stroke="black" stroke-width="1.5" stroke-linecap="round" stroke-linejoin="round"/>
</svg>
