<svg width="24" height="24" viewBox="0 0 24 24" fill="none" xmlns="http://www.w3.org/2000/svg">
<rect width="24" height="24" fill="white"/>
<path d="M12 22L3.30863 17.1715C3.11815 17.0656 3.00001 16.8649 3.00001 16.647L2.99999 7.35309C2.99999 7.13519 3.11813 6.93442 3.30861 6.8286L11.7086 2.16193C11.8898 2.06126 12.1102 2.06126 12.2914 2.16193L20.6914 6.8286C20.8819 6.93442 21 7.13519 21 7.35309V11" stroke="black" stroke-width="1.5" stroke-linecap="round" stroke-linejoin="round"/>
<path d="M3.52844 7.29363L11.7086 11.8382C11.8898 11.9388 12.1102 11.9388 12.2914 11.8382L20.5 7.27783" stroke="black" stroke-width="1.5" stroke-linecap="round" stroke-linejoin="round"/>
<path d="M12 12V17.5" stroke="black" stroke-width="1.5" stroke-linecap="round" stroke-linejoin="round"/>
<path d="M12 2V9" stroke="black" stroke-width="1.5" stroke-linecap="round" stroke-linejoin="round"/>
<path d="M18.6569 17.2427L19.364 17.9498" stroke="black" stroke-width="1.5" stroke-linecap="round" stroke-linejoin="round"/>
<path d="M17.2426 18.6567L17.9497 19.3638" stroke="black" stroke-width="1.5" stroke-linecap="round" stroke-linejoin="round"/>
<path d="M18.6569 14.4144L14.4142 18.6571C13.6332 19.4381 13.6332 20.7045 14.4142 21.4855L15.1213 22.1926C15.9024 22.9737 17.1687 22.9737 17.9497 22.1926L22.1924 17.95C22.9734 17.1689 22.9734 15.9026 22.1924 15.1215L21.4853 14.4144C20.7042 13.6334 19.4379 13.6334 18.6569 14.4144Z" stroke="black" stroke-width="1.5" stroke-linecap="round" stroke-linejoin="round"/>
</svg>
