<svg width="24" height="24" viewBox="0 0 24 24" fill="none" xmlns="http://www.w3.org/2000/svg">
<rect width="24" height="24" fill="white"/>
<path d="M3.52844 7.29346L9 10.3332" stroke="black" stroke-width="1.5" stroke-linecap="round" stroke-linejoin="round"/>
<path d="M22 2H20M12 12V10C12 6.45478 14.3061 3.44817 17.5 2.39838" stroke="black" stroke-width="1.5" stroke-linecap="round" stroke-linejoin="round"/>
<path d="M22 12H20M12 22V20C12 16.4548 14.3061 13.4482 17.5 12.3984" stroke="black" stroke-width="1.5" stroke-linecap="round" stroke-linejoin="round"/>
<path d="M12 22L3.3086 17.1715C3.11812 17.0656 2.99999 16.8649 2.99999 16.647L2.99997 7.35309C2.99997 7.13519 3.11811 6.93442 3.30859 6.8286L11.7086 2.16193C11.8898 2.06126 12.1102 2.06126 12.2914 2.16193L15 3.66672" stroke="black" stroke-width="1.5" stroke-linecap="round" stroke-linejoin="round"/>
<path d="M12 11.9999L3.52841 7.29346" stroke="black" stroke-width="1.5" stroke-linecap="round" stroke-linejoin="round"/>
<path d="M12 21V12" stroke="black" stroke-width="1.5" stroke-linecap="round" stroke-linejoin="round"/>
<path d="M15 13.5V4" stroke="black" stroke-width="1.5" stroke-linecap="round" stroke-linejoin="round"/>
</svg>
