<svg width="24" height="24" viewBox="0 0 24 24" fill="none" xmlns="http://www.w3.org/2000/svg">
<g clip-path="url(#clip0_1_1891)">
<rect width="24" height="24" fill="white"/>
<mask id="mask0_1_1891" style="mask-type:luminance" maskUnits="userSpaceOnUse" x="0" y="0" width="24" height="24">
<path d="M24 0H0V24H24V0Z" fill="white"/>
</mask>
<g mask="url(#mask0_1_1891)">
<path d="M17.6744 11.4075L15.7691 17.1233C15.7072 17.309 15.5586 17.4529 15.3709 17.5087L3.69348 20.9803C3.22819 21.1186 2.79978 20.676 2.95328 20.2155L6.74467 8.84131C6.79981 8.67588 6.92419 8.54263 7.08543 8.47624L12.472 6.25822C12.696 6.166 12.9535 6.21749 13.1248 6.38876L17.5294 10.7935C17.6901 10.9542 17.7463 11.1919 17.6744 11.4075Z" stroke="black" stroke-width="1.5" stroke-linecap="round" stroke-linejoin="round"/>
<path d="M3.29591 20.6015L9.65987 14.2375" stroke="black" stroke-width="1.5" stroke-linecap="round" stroke-linejoin="round"/>
<path d="M17.7917 11.0556L20.6202 8.22718C21.4012 7.44613 21.4012 6.1798 20.6202 5.39875L18.4989 3.27743C17.7178 2.49639 16.4515 2.49639 15.6704 3.27743L12.842 6.10586" stroke="black" stroke-width="1.5" stroke-linecap="round" stroke-linejoin="round"/>
<path d="M11.7814 12.1162C11.1956 11.5304 10.2458 11.5304 9.66004 12.1162C9.07426 12.702 9.07426 13.6518 9.66004 14.2375C10.2458 14.8233 11.1956 14.8233 11.7814 14.2375C12.3671 13.6518 12.3671 12.702 11.7814 12.1162Z" stroke="black" stroke-width="1.5" stroke-linecap="round" stroke-linejoin="round"/>
</g>
</g>
<defs>
<clipPath id="clip0_1_1891">
<rect width="24" height="24" fill="white"/>
</clipPath>
</defs>
</svg>
