<svg width="24" height="24" viewBox="0 0 24 24" fill="none" xmlns="http://www.w3.org/2000/svg">
<path d="M4 18.8V5.2C4 4.0799 4 3.51984 4.21799 3.09202C4.40973 2.71569 4.71569 2.40973 5.09202 2.21799C5.51984 2 6.0799 2 7.2 2H15.1745C15.6637 2 15.9083 2 16.1385 2.05526C16.3425 2.10425 16.5376 2.18506 16.7166 2.29472C16.9184 2.4184 17.0914 2.59135 17.4373 2.93726L19.0627 4.56274C19.4086 4.90865 19.5816 5.0816 19.7053 5.28343C19.8149 5.46237 19.8957 5.65746 19.9447 5.86154C20 6.09171 20 6.3363 20 6.82548V18.8C20 19.9201 20 20.4802 19.782 20.908C19.5903 21.2843 19.2843 21.5903 18.908 21.782C18.4802 22 17.9201 22 16.8 22H7.2C6.0799 22 5.51984 22 5.09202 21.782C4.71569 21.5903 4.40973 21.2843 4.21799 20.908C4 20.4802 4 19.9201 4 18.8Z" stroke="black" stroke-width="1.5" stroke-linecap="round" stroke-linejoin="round"/>
<path d="M9.79306 10.5439C10.1009 10.4968 10.2549 10.4733 10.3883 10.4096C10.5064 10.3533 10.6123 10.2743 10.6999 10.1771C10.799 10.0674 10.8654 9.92654 10.9982 9.64484L11.674 8.21211C11.8073 7.9293 12.1927 7.9293 12.326 8.21211L13.0018 9.64484C13.1346 9.92654 13.201 10.0674 13.3001 10.1771C13.3877 10.2743 13.4936 10.3533 13.6117 10.4096C13.7451 10.4733 13.8991 10.4968 14.2069 10.5439L15.6886 10.7706C15.9867 10.8162 16.1055 11.1997 15.8897 11.4198L14.7766 12.5545C14.5685 12.7666 14.4644 12.8727 14.3972 12.9974C14.3377 13.1078 14.2995 13.2285 14.2846 13.3531C14.2678 13.4937 14.2918 13.6404 14.3398 13.9337L14.6054 15.5543C14.6564 15.8652 14.3446 16.1022 14.0778 15.9554L12.7715 15.2364C12.4898 15.0814 12.3489 15.0038 12.1999 14.9734C12.068 14.9465 11.932 14.9465 11.8001 14.9734C11.6511 15.0038 11.5102 15.0814 11.2285 15.2364L9.92219 15.9554C9.65544 16.1022 9.34363 15.8652 9.39458 15.5543L9.66016 13.9337C9.70822 13.6404 9.73225 13.4937 9.71542 13.3531C9.70052 13.2285 9.66231 13.1078 9.60279 12.9974C9.53558 12.8727 9.43152 12.7666 9.22341 12.5545L8.1103 11.4198C7.89447 11.1997 8.01329 10.8162 8.31141 10.7706L9.79306 10.5439Z" stroke="black" stroke-width="1.5" stroke-linecap="round" stroke-linejoin="round"/>
<path d="M16 2.5V5.4C16 5.73137 16.2686 6 16.6 6H19.5" stroke="black" stroke-width="1.5" stroke-linecap="round" stroke-linejoin="round"/>
</svg>
