<svg width="24" height="24" viewBox="0 0 24 24" fill="none" xmlns="http://www.w3.org/2000/svg">
<rect width="24" height="24" fill="white"/>
<path d="M10 16.4022V7.59842C10 7.26704 10.2679 6.99909 10.5992 6.99436C13.09 6.95882 16.5 6.92186 16.5 12.0002C16.5 17.0785 13.09 17.0417 10.5992 17.0062C10.2679 17.0015 10 16.7335 10 16.4022Z" stroke="black" stroke-width="1.5"/>
<path d="M8 12H12" stroke="black" stroke-width="1.5" stroke-linecap="round" stroke-linejoin="round"/>
<path d="M12 22C6.47715 22 2 17.5228 2 12C2 6.47715 6.47715 2 12 2C17.5228 2 22 6.47715 22 12C22 17.5228 17.5228 22 12 22Z" stroke="black" stroke-width="1.5" stroke-linecap="round" stroke-linejoin="round"/>
</svg>
