<svg width="24" height="24" viewBox="0 0 24 24" fill="none" xmlns="http://www.w3.org/2000/svg">
<rect width="24" height="24" fill="white"/>
<path d="M21.1679 8C19.6247 4.46819 16.1006 2 11.9999 2C6.81459 2 2.55104 5.94668 2.04932 11" stroke="black" stroke-width="1.5" stroke-linecap="round" stroke-linejoin="round"/>
<path d="M18 8H21.4C21.7314 8 22 7.73137 22 7.4V4" stroke="black" stroke-width="1.5" stroke-linecap="round" stroke-linejoin="round"/>
<path d="M2.88146 16C4.42458 19.5318 7.94874 22 12.0494 22C17.2347 22 21.4983 18.0533 22 13" stroke="black" stroke-width="1.5" stroke-linecap="round" stroke-linejoin="round"/>
<path d="M6.04932 16H2.64932C2.31795 16 2.04932 16.2686 2.04932 16.6V20" stroke="black" stroke-width="1.5" stroke-linecap="round" stroke-linejoin="round"/>
<path d="M10 16.4022V7.59842C10 7.26704 10.2679 6.99909 10.5992 6.99436C13.09 6.95882 16.5 6.92186 16.5 12.0002C16.5 17.0785 13.09 17.0417 10.5992 17.0062C10.2679 17.0015 10 16.7335 10 16.4022Z" stroke="black" stroke-width="1.5"/>
<path d="M8 12H12" stroke="black" stroke-width="1.5" stroke-linecap="round" stroke-linejoin="round"/>
</svg>
