<svg width="24" height="24" viewBox="0 0 24 24" fill="none" xmlns="http://www.w3.org/2000/svg">
<rect width="24" height="24" fill="white"/>
<path d="M7.00001 10.5L4.99592 13.1721C4.41846 13.9421 4.47128 15.0141 5.12161 15.7236L8.90551 19.8515C9.28433 20.2647 9.81827 20.5 10.3789 20.5C11.4651 20.5 13.2415 20.5 15 20.5C17.4 20.5 19 19 19 16.5C19 16.5 19 9.64287 19 7.92859" stroke="black" stroke-width="1.5" stroke-linecap="round" stroke-linejoin="round"/>
<path d="M16 8.49995C16 8.49995 16 8.37483 16 7.92852C16 5.6428 19 5.6428 19 7.92852" stroke="black" stroke-width="1.5" stroke-linecap="round" stroke-linejoin="round"/>
<path d="M13 8.50008C13 8.50008 13 7.91978 13 7.02715M13 7.02715C13 6.804 13 6.50008 13 6.50008M13 7.02715C13 4.74144 16 4.74144 16 7.02715C16 7.25031 16 7.70549 16 7.92865C16 8.37496 16 8.50008 16 8.50008" stroke="black" stroke-width="1.5" stroke-linecap="round" stroke-linejoin="round"/>
<path d="M13 8.50008C13 8.50008 13 7.91978 13 7.02715C13 4.74144 16 4.74144 16 7.02715C16 7.25031 16 7.70549 16 7.92865C16 8.37496 16 8.50008 16 8.50008" stroke="black" stroke-width="1.5" stroke-linecap="round" stroke-linejoin="round"/>
<path d="M10 8.50005C10 8.50005 10 7.85719 10 6.50005C10 4.21434 13 4.21434 13 6.50005C13 6.50005 13 6.80397 13 7.02713C13 7.91975 13 8.50005 13 8.50005" stroke="black" stroke-width="1.5" stroke-linecap="round" stroke-linejoin="round"/>
<path d="M7 13.5V6.5C7 5.67158 7.67157 5 8.5 5C9.32843 5 10 5.55521 10 6.38363C10 6.42145 10 6.46024 10 6.5C10 7.85715 10 8.5 10 8.5" stroke="black" stroke-width="1.5" stroke-linecap="round" stroke-linejoin="round"/>
</svg>
