<svg width="24" height="24" viewBox="0 0 24 24" fill="none" xmlns="http://www.w3.org/2000/svg">
<path d="M4 18.8V5.2C4 4.0799 4 3.51984 4.21799 3.09202C4.40973 2.71569 4.71569 2.40973 5.09202 2.21799C5.51984 2 6.0799 2 7.2 2H15.1745C15.6637 2 15.9083 2 16.1385 2.05526C16.3425 2.10425 16.5376 2.18506 16.7166 2.29472C16.9184 2.4184 17.0914 2.59135 17.4373 2.93726L19.0627 4.56274C19.4086 4.90865 19.5816 5.0816 19.7053 5.28343C19.8149 5.46237 19.8957 5.65746 19.9447 5.86154C20 6.09171 20 6.3363 20 6.82548V18.8C20 19.9201 20 20.4802 19.782 20.908C19.5903 21.2843 19.2843 21.5903 18.908 21.782C18.4802 22 17.9201 22 16.8 22H7.2C6.0799 22 5.51984 22 5.09202 21.782C4.71569 21.5903 4.40973 21.2843 4.21799 20.908C4 20.4802 4 19.9201 4 18.8Z" stroke="black" stroke-width="1.5" stroke-linecap="round" stroke-linejoin="round"/>
<path d="M16 2.25757V5.40001C16 5.73138 16.2686 6.00001 16.6 6.00001H19.5" stroke="black" stroke-width="1.5" stroke-linecap="round" stroke-linejoin="round"/>
</svg>
