<svg width="24" height="24" viewBox="0 0 24 24" fill="none" xmlns="http://www.w3.org/2000/svg">
<rect width="24" height="24" fill="white"/>
<path d="M9 21H4C2.89543 21 2 20.1046 2 19V5C2 3.89543 2.89543 3 4 3H20C21.1046 3 22 3.89543 22 5V11" stroke="black" stroke-width="1.5" stroke-linecap="round"/>
<path d="M12 21V16.3615C12 15.8518 12.1003 15.3624 12.2845 14.9077M22 21V17.8154M14.2222 12.7345C15.0167 12.2705 15.9721 12 17 12C19.2795 12 21.2027 13.3306 21.8046 15.15" stroke="black" stroke-width="1.5" stroke-linecap="round" stroke-linejoin="round"/>
<path d="M15 22V19.8235M19 22V16.8529C19 15.8296 18.1046 15 17 15C15.8954 15 15 15.8296 15 16.8529V17.6471" stroke="black" stroke-width="1.5" stroke-linecap="round" stroke-linejoin="round"/>
<path d="M13 6.01001L13.01 5.9989" stroke="black" stroke-width="1.5" stroke-linecap="round" stroke-linejoin="round"/>
<path d="M16 6.01001L16.01 5.9989" stroke="black" stroke-width="1.5" stroke-linecap="round" stroke-linejoin="round"/>
<path d="M19 6.01001L19.01 5.9989" stroke="black" stroke-width="1.5" stroke-linecap="round" stroke-linejoin="round"/>
</svg>
