<svg width="24" height="24" viewBox="0 0 24 24" fill="none" xmlns="http://www.w3.org/2000/svg">
<path d="M18 3L18 7" stroke="black" stroke-width="1.5" stroke-linecap="round" stroke-linejoin="round"/>
<path d="M18 11.01L18.01 10.9989" stroke="black" stroke-width="1.5" stroke-linecap="round" stroke-linejoin="round"/>
<path d="M22 7V11V16.8C22 17.9201 22 18.4802 21.782 18.908C21.5903 19.2843 21.2843 19.5903 20.908 19.782C20.4802 20 19.9201 20 18.8 20H5.2C4.07989 20 3.51984 20 3.09202 19.782C2.71569 19.5903 2.40973 19.2843 2.21799 18.908C2 18.4802 2 17.9201 2 16.8V7.5" stroke="black" stroke-width="1.5" stroke-linecap="round" stroke-linejoin="round"/>
<path d="M14 7H13.6838C13.2456 7 13.0265 7 12.8179 6.95498C12.6328 6.91504 12.4544 6.84904 12.288 6.75895C12.1003 6.65739 11.9339 6.5148 11.6012 6.22962L9.89878 4.77038C9.56607 4.4852 9.39972 4.34261 9.21204 4.24105C9.04557 4.15096 8.86716 4.08496 8.68213 4.04502C8.47354 4 8.25444 4 7.81624 4H5.2C4.0799 4 3.51984 4 3.09202 4.21799C2.71569 4.40973 2.40973 4.71569 2.21799 5.09202C2 5.51984 2 6.07989 2 7.2V7.8C2 8.9201 2 9.48016 2.21799 9.90798C2.40973 10.2843 2.71569 10.5903 3.09202 10.782C3.51984 11 4.0799 11 5.2 11H14" stroke="black" stroke-width="1.5" stroke-linecap="round" stroke-linejoin="round"/>
</svg>
