<svg width="24" height="24" viewBox="0 0 24 24" fill="none" xmlns="http://www.w3.org/2000/svg">
<path d="M2 11V7.2C2 6.07989 2 5.51984 2.21799 5.09202C2.40973 4.71569 2.71569 4.40973 3.09202 4.21799C3.51984 4 4.0799 4 5.2 4H7.81624C8.25444 4 8.47354 4 8.68213 4.04502C8.86716 4.08496 9.04557 4.15096 9.21204 4.24105C9.39972 4.34261 9.56607 4.4852 9.89878 4.77038L11.6012 6.22962C11.9339 6.5148 12.1003 6.65739 12.288 6.75895C12.4544 6.84904 12.6328 6.91504 12.8179 6.95498C13.0265 7 13.2456 7 13.6838 7H18.8C19.9201 7 20.4802 7 20.908 7.21799C21.2843 7.40973 21.5903 7.71569 21.782 8.09202C22 8.51984 22 9.07989 22 10.2V11M2 11V16.8C2 17.9201 2 18.4802 2.21799 18.908C2.40973 19.2843 2.71569 19.5903 3.09202 19.782C3.51984 20 4.07989 20 5.2 20H18.8C19.9201 20 20.4802 20 20.908 19.782C21.2843 19.5903 21.5903 19.2843 21.782 18.908C22 18.4802 22 17.9201 22 16.8V11M2 11H22" stroke="black" stroke-width="1.5" stroke-linecap="round" stroke-linejoin="round"/>
</svg>
