<svg width="24" height="24" viewBox="0 0 24 24" fill="none" xmlns="http://www.w3.org/2000/svg">
<path d="M5.2 4H7.81624C8.25444 4 8.47354 4 8.68213 4.04502C8.86716 4.08496 9.04557 4.15096 9.21204 4.24105C9.39971 4.34261 9.56607 4.4852 9.89877 4.77038L9.89878 4.77038L11.6012 6.22962C11.9339 6.5148 12.1003 6.65739 12.288 6.75895C12.4544 6.84904 12.6328 6.91504 12.8179 6.95498C13.0265 7 13.2456 7 13.6838 7H20C21.1046 7 22 7.89543 22 9C22 10.1046 21.1046 11 20 11H5.2C4.0799 11 3.51984 11 3.09202 10.782C2.71569 10.5903 2.40973 10.2843 2.21799 9.90798C2 9.48016 2 8.9201 2 7.8V7.2C2 6.0799 2 5.51984 2.21799 5.09202C2.40973 4.71569 2.71569 4.40973 3.09202 4.21799C3.51984 4 4.0799 4 5.2 4Z" stroke="black" stroke-width="1.5" stroke-linecap="round" stroke-linejoin="round"/>
<path d="M22 10L22 14" stroke="black" stroke-width="1.5" stroke-linecap="round" stroke-linejoin="round"/>
<path d="M2 8V16.8C2 17.9201 2 18.4802 2.21799 18.908C2.40973 19.2843 2.71569 19.5903 3.09202 19.782C3.51984 20 4.07989 20 5.2 20H13" stroke="black" stroke-width="1.5" stroke-linecap="round" stroke-linejoin="round"/>
<path d="M19 21C20.1046 21 21 20.1046 21 19C21 17.8954 20.1046 17 19 17C18.6357 17 18.2942 17.0974 18 17.2676C17.4022 17.6134 17 18.2597 17 19C17 19.7403 17.4022 20.3866 18 20.7324C18.2942 20.9026 18.6357 21 19 21Z" stroke="black" stroke-width="1.5" stroke-linecap="round" stroke-linejoin="round"/>
<path d="M19 22C20.6569 22 22 20.6569 22 19C22 17.3431 20.6569 16 19 16C17.3431 16 16 17.3431 16 19C16 20.6569 17.3431 22 19 22Z" stroke="black" stroke-width="1.5" stroke-linecap="round" stroke-linejoin="round" stroke-dasharray="0.3 2"/>
</svg>
