<svg width="24" height="24" viewBox="0 0 24 24" fill="none" xmlns="http://www.w3.org/2000/svg">
<rect width="24" height="24" fill="white"/>
<path d="M2 11L4.80662 7.84255C5.5657 6.98859 6.65372 6.5 7.79627 6.5H8" stroke="black" stroke-width="1.5" stroke-linecap="round" stroke-linejoin="round"/>
<path d="M2 19.5002L7.5 19.5L11.5 16.5002C11.5 16.5002 12.3091 15.9528 13.5 15.0001C16 13.0002 13.5 9.83347 11 11.4997C8.96409 12.8565 7 14.0003 7 14.0003" stroke="black" stroke-width="1.5" stroke-linecap="round" stroke-linejoin="round"/>
<path d="M8 13.5V7C8 5.89543 8.89543 5 10 5H20C21.1046 5 22 5.89543 22 7V13C22 14.1046 21.1046 15 20 15H13.5" stroke="black" stroke-width="1.5"/>
<path d="M18.25 12C18.75 10.5 18.75 9.5 18.25 8" stroke="black" stroke-width="1.5" stroke-linecap="round" stroke-linejoin="round"/>
<path d="M16 9C16.2266 9.5 16.2266 10.5 16 11" stroke="black" stroke-width="1.5" stroke-linecap="round" stroke-linejoin="round"/>
</svg>
