<svg width="24" height="24" viewBox="0 0 24 24" fill="none" xmlns="http://www.w3.org/2000/svg">
<g clip-path="url(#clip0_1_3142)">
<rect width="24" height="24" fill="white"/>
<mask id="mask0_1_3142" style="mask-type:luminance" maskUnits="userSpaceOnUse" x="0" y="0" width="24" height="24">
<path d="M24 0H0V24H24V0Z" fill="white"/>
</mask>
<g mask="url(#mask0_1_3142)">
<path d="M6.32677 2.77363C6.43395 2.58799 6.63202 2.47363 6.84638 2.47363H17.1536C17.3679 2.47363 17.566 2.58799 17.6732 2.77363L22.8268 11.6999C22.9339 11.8856 22.9339 12.1143 22.8268 12.2999L17.6732 21.2262C17.566 21.4118 17.3679 21.5262 17.1536 21.5262H6.84638C6.63202 21.5262 6.43395 21.4118 6.32677 21.2262L1.17318 12.2999C1.066 12.1143 1.066 11.8856 1.17318 11.6999L6.32677 2.77363Z" stroke="black" stroke-width="1.5" stroke-linecap="round" stroke-linejoin="round"/>
</g>
</g>
<defs>
<clipPath id="clip0_1_3142">
<rect width="24" height="24" fill="white"/>
</clipPath>
</defs>
</svg>
