<svg width="24" height="24" viewBox="0 0 24 24" fill="none" xmlns="http://www.w3.org/2000/svg">
<rect width="24" height="24" fill="white"/>
<path d="M12.5019 9.13017L14.5506 9.6613C14.8152 9.72991 15.0015 9.96954 14.9924 10.2427C14.8262 15.232 12 16 12 16C12 16 9.17374 15.232 9.00761 10.2427C8.99851 9.96954 9.18478 9.72991 9.44941 9.6613L11.4981 9.13017C11.8273 9.04483 12.1727 9.04483 12.5019 9.13017Z" stroke="black" stroke-width="1.5" stroke-linecap="round" stroke-linejoin="round"/>
<path d="M2 7.99998L11.7317 3.13414C11.9006 3.04969 12.0994 3.04968 12.2683 3.13414L22 7.99998" stroke="black" stroke-width="1.5" stroke-linecap="round" stroke-linejoin="round"/>
<path d="M20 11V19C20 20.1046 19.1046 21 18 21H6C4.89543 21 4 20.1046 4 19V11" stroke="black" stroke-width="1.5" stroke-linecap="round" stroke-linejoin="round"/>
</svg>
