<svg width="24" height="24" viewBox="0 0 24 24" fill="none" xmlns="http://www.w3.org/2000/svg">
<path d="M22 12C22 6.47715 17.5228 2 12 2C6.47715 2 2 6.47715 2 12C2 17.5228 6.47715 22 12 22" stroke="black" stroke-width="1.5" stroke-linecap="round" stroke-linejoin="round"/>
<path d="M13 2.04932C13 2.04932 16 5.99994 16 11.9999" stroke="black" stroke-width="1.5" stroke-linecap="round" stroke-linejoin="round"/>
<path d="M11 21.9506C11 21.9506 8 17.9999 8 11.9999C8 5.99994 11 2.04932 11 2.04932" stroke="black" stroke-width="1.5" stroke-linecap="round" stroke-linejoin="round"/>
<path d="M2.62964 15.5H12" stroke="black" stroke-width="1.5" stroke-linecap="round" stroke-linejoin="round"/>
<path d="M2.62964 8.5H21.3704" stroke="black" stroke-width="1.5" stroke-linecap="round" stroke-linejoin="round"/>
<path d="M15.7778 20.5641L15.039 15.1086C15.0252 15.0069 15.0183 14.956 15.032 14.9131C15.044 14.8754 15.067 14.842 15.0979 14.8173C15.1331 14.7893 15.1831 14.7776 15.2831 14.7541L18.427 14.0171C18.4542 14.0107 18.4678 14.0075 18.4816 14.0063C18.4938 14.0051 18.5062 14.0051 18.5184 14.0063C18.5322 14.0075 18.5458 14.0107 18.573 14.0171L21.7169 14.7541C21.8169 14.7776 21.8669 14.7893 21.9021 14.8173C21.933 14.842 21.956 14.8754 21.968 14.9131C21.9817 14.956 21.9748 15.0069 21.961 15.1086L21.2222 20.5641C21.1947 20.7672 21.0278 22 18.5 22C15.9722 22 15.8053 20.7672 15.7778 20.5641Z" stroke="black" stroke-width="1.5" stroke-linecap="round" stroke-linejoin="round"/>
</svg>
