<svg width="24" height="24" viewBox="0 0 24 24" fill="none" xmlns="http://www.w3.org/2000/svg">
<path d="M6 6L18 6" stroke="black" stroke-width="1.5" stroke-linecap="round" stroke-linejoin="round"/>
<path d="M6 10H18" stroke="black" stroke-width="1.5" stroke-linecap="round" stroke-linejoin="round"/>
<path d="M13 14L18 14" stroke="black" stroke-width="1.5" stroke-linecap="round" stroke-linejoin="round"/>
<path d="M13 18L18 18" stroke="black" stroke-width="1.5" stroke-linecap="round" stroke-linejoin="round"/>
<path d="M2 18.8V5.2C2 4.0799 2 3.51984 2.21799 3.09202C2.40973 2.71569 2.71569 2.40973 3.09202 2.21799C3.51984 2 4.0799 2 5.2 2H18.8C19.9201 2 20.4802 2 20.908 2.21799C21.2843 2.40973 21.5903 2.71569 21.782 3.09202C22 3.51984 22 4.0799 22 5.2V18.8C22 19.9201 22 20.4802 21.782 20.908C21.5903 21.2843 21.2843 21.5903 20.908 21.782C20.4802 22 19.9201 22 18.8 22H5.2C4.0799 22 3.51984 22 3.09202 21.782C2.71569 21.5903 2.40973 21.2843 2.21799 20.908C2 20.4802 2 19.9201 2 18.8Z" stroke="black" stroke-width="1.5" stroke-linecap="round" stroke-linejoin="round"/>
<path d="M6 16.5V15.5C6 15.0341 6 14.8011 6.07612 14.6173C6.17761 14.3723 6.37229 14.1776 6.61732 14.0761C6.80109 14 7.03406 14 7.5 14C7.96594 14 8.19891 14 8.38268 14.0761C8.62771 14.1776 8.82239 14.3723 8.92388 14.6173C9 14.8011 9 15.0341 9 15.5V16.5C9 16.9659 9 17.1989 8.92388 17.3827C8.82239 17.6277 8.62771 17.8224 8.38268 17.9239C8.19891 18 7.96594 18 7.5 18C7.03406 18 6.80109 18 6.61732 17.9239C6.37229 17.8224 6.17761 17.6277 6.07612 17.3827C6 17.1989 6 16.9659 6 16.5Z" stroke="black" stroke-width="1.5" stroke-linecap="round" stroke-linejoin="round"/>
</svg>
