<svg width="24" height="24" viewBox="0 0 24 24" fill="none" xmlns="http://www.w3.org/2000/svg">
<path d="M6 6L14 6" stroke="black" stroke-width="1.5" stroke-linecap="round" stroke-linejoin="round"/>
<path d="M6 10H18" stroke="black" stroke-width="1.5" stroke-linecap="round" stroke-linejoin="round"/>
<path d="M13 14L18 14" stroke="black" stroke-width="1.5" stroke-linecap="round" stroke-linejoin="round"/>
<path d="M13 18L18 18" stroke="black" stroke-width="1.5" stroke-linecap="round" stroke-linejoin="round"/>
<path d="M2 18.78V5.22C2 4.08102 2 3.51153 2.22517 3.07805C2.41492 2.71276 2.71276 2.41492 3.07805 2.22517C3.51153 2 4.08102 2 5.22 2H17.1662C17.6636 2 17.9123 2 18.1461 2.05711C18.3449 2.10565 18.535 2.18441 18.7099 2.29063C18.9156 2.41559 19.0914 2.59143 19.4431 2.94312L21.0569 4.55688L21.0569 4.55691C21.4086 4.90858 21.5844 5.08442 21.7094 5.29013C21.8156 5.46501 21.8943 5.65514 21.9429 5.8539C22 6.08773 22 6.33641 22 6.83377V18.78C22 19.919 22 20.4885 21.7748 20.9219C21.5851 21.2872 21.2872 21.5851 20.9219 21.7748C20.4885 22 19.919 22 18.78 22H5.22C4.08102 22 3.51153 22 3.07805 21.7748C2.71276 21.5851 2.41492 21.2872 2.22517 20.9219C2 20.4885 2 19.919 2 18.78Z" stroke="black" stroke-width="1.5" stroke-linecap="round" stroke-linejoin="round"/>
<path d="M6 16.5V15.5C6 15.0341 6 14.8011 6.07612 14.6173C6.17761 14.3723 6.37229 14.1776 6.61732 14.0761C6.80109 14 7.03406 14 7.5 14C7.96594 14 8.19891 14 8.38268 14.0761C8.62771 14.1776 8.82239 14.3723 8.92388 14.6173C9 14.8011 9 15.0341 9 15.5V16.5C9 16.9659 9 17.1989 8.92388 17.3827C8.82239 17.6277 8.62771 17.8224 8.38268 17.9239C8.19891 18 7.96594 18 7.5 18C7.03406 18 6.80109 18 6.61732 17.9239C6.37229 17.8224 6.17761 17.6277 6.07612 17.3827C6 17.1989 6 16.9659 6 16.5Z" stroke="black" stroke-width="1.5" stroke-linecap="round" stroke-linejoin="round"/>
<path d="M18 2.5V5.4C18 5.73137 18.2686 6 18.6 6H21.5" stroke="black" stroke-width="1.5" stroke-linecap="round" stroke-linejoin="round"/>
</svg>
