<svg width="24" height="24" viewBox="0 0 24 24" fill="none" xmlns="http://www.w3.org/2000/svg">
<rect width="24" height="24" fill="white"/>
<path d="M15.8189 13.3288L10.4948 19.3184C9.69925 20.2135 8.30077 20.2135 7.50519 19.3184L2.1811 13.3288C1.50753 12.5711 1.50753 11.4291 2.1811 10.6714L7.50519 4.68177C8.30077 3.78674 9.69925 3.78674 10.4948 4.68177L15.8189 10.6714C16.4925 11.4291 16.4925 12.5711 15.8189 13.3288Z" stroke="black" stroke-width="1.5" stroke-linecap="round" stroke-linejoin="round"/>
<path d="M12 6.3751L13.5052 4.68177C14.3008 3.78674 15.6992 3.78674 16.4948 4.68177L21.8189 10.6714C22.4925 11.4291 22.4925 12.5711 21.8189 13.3288L16.4948 19.3184C15.6992 20.2135 14.3008 20.2135 13.5052 19.3184L12 17.6251" stroke="black" stroke-width="1.5" stroke-linecap="round" stroke-linejoin="round"/>
</svg>
