<svg width="24" height="24" viewBox="0 0 24 24" fill="none" xmlns="http://www.w3.org/2000/svg">
<path d="M3 14.8V9.2C3 8.0799 3 7.51984 3.21799 7.09202C3.40973 6.71569 3.71569 6.40973 4.09202 6.21799C4.51984 6 5.0799 6 6.2 6H15.2874C15.9136 6 16.2266 6 16.5108 6.0863C16.7624 6.1627 16.9964 6.28796 17.1996 6.45491C17.429 6.64349 17.6027 6.90398 17.95 7.42496L19.8166 10.225C20.2443 10.8665 20.4582 11.1872 20.5412 11.5339C20.6147 11.8403 20.6147 12.1597 20.5412 12.4661C20.4582 12.8128 20.2443 13.1335 19.8166 13.775L17.95 16.575C17.6027 17.096 17.429 17.3565 17.1996 17.5451C16.9964 17.712 16.7624 17.8373 16.5108 17.9137C16.2266 18 15.9136 18 15.2874 18H6.2C5.0799 18 4.51984 18 4.09202 17.782C3.71569 17.5903 3.40973 17.2843 3.21799 16.908C3 16.4802 3 15.9201 3 14.8Z" stroke="black" stroke-width="1.5"/>
</svg>
