<svg width="24" height="24" viewBox="0 0 24 24" fill="none" xmlns="http://www.w3.org/2000/svg">
<rect width="24" height="24" fill="white"/>
<path d="M14 14.0001V6.00009M14 14.0001L20.1023 17.4871C20.5023 17.7157 21 17.4269 21 16.9662V3.034C21 2.5733 20.5023 2.28448 20.1023 2.51305L14 6.00009M14 14.0001H7C4.79086 14.0001 3 12.2092 3 10.0001C3 7.79095 4.79086 6.00009 7 6.00009H14" stroke="black" stroke-width="1.5"/>
<path d="M7.75716 19.3001L7 14H11L11.6772 18.7401C11.8476 19.9329 10.922 21 9.71716 21C8.73186 21 7.8965 20.2755 7.75716 19.3001Z" stroke="black" stroke-width="1.5"/>
</svg>
