<svg width="24" height="24" viewBox="0 0 24 24" fill="none" xmlns="http://www.w3.org/2000/svg">
<path d="M7 18H10.5H14" stroke="black" stroke-width="1.5" stroke-linecap="round" stroke-linejoin="round"/>
<path d="M7 14H7.5H8" stroke="black" stroke-width="1.5" stroke-linecap="round" stroke-linejoin="round"/>
<path d="M7 10H8.5H10" stroke="black" stroke-width="1.5" stroke-linecap="round" stroke-linejoin="round"/>
<path d="M7 2L15.1745 2C15.6637 2 15.9083 2 16.1385 2.05526C16.3425 2.10425 16.5376 2.18506 16.7166 2.29472C16.9184 2.4184 17.0914 2.59135 17.4373 2.93726L20.0627 5.56274C20.4086 5.90865 20.5816 6.0816 20.7053 6.28343C20.8149 6.46237 20.8957 6.65746 20.9447 6.86154C21 7.09171 21 7.3363 21 7.82548V19" stroke="black" stroke-width="1.5" stroke-linecap="round" stroke-linejoin="round"/>
<path d="M3 18.8V8.2C3 7.0799 3 6.51984 3.21799 6.09202C3.40973 5.71569 3.71569 5.40973 4.09202 5.21799C4.51984 5 5.07989 5 6.2 5H13.1745C13.6637 5 13.9083 5 14.1385 5.05526C14.3425 5.10425 14.5376 5.18506 14.7166 5.29472C14.9184 5.4184 15.0914 5.59135 15.4373 5.93726L17.0627 7.56274C17.4086 7.90865 17.5816 8.0816 17.7053 8.28343C17.8149 8.46237 17.8957 8.65746 17.9447 8.86154C18 9.09171 18 9.3363 18 9.82548V18.8C18 19.9201 18 20.4802 17.782 20.908C17.5903 21.2843 17.2843 21.5903 16.908 21.782C16.4802 22 15.9201 22 14.8 22H6.2C5.0799 22 4.51984 22 4.09202 21.782C3.71569 21.5903 3.40973 21.2843 3.21799 20.908C3 20.4802 3 19.9201 3 18.8Z" stroke="black" stroke-width="1.5" stroke-linecap="round" stroke-linejoin="round"/>
<path d="M14 5.5V8.4C14 8.73137 14.2686 9 14.6 9H17.5" stroke="black" stroke-width="1.5" stroke-linecap="round" stroke-linejoin="round"/>
</svg>
