<svg width="24" height="24" viewBox="0 0 24 24" fill="none" xmlns="http://www.w3.org/2000/svg">
<path d="M1.99219 19H4.99219M7.99219 19H4.99219M4.99219 19V16M4.99219 19V22" stroke="black" stroke-width="1.5" stroke-linecap="round" stroke-linejoin="round"/>
<path d="M7 2L15.1745 2C15.6637 2 15.9083 2 16.1385 2.05526C16.3425 2.10425 16.5376 2.18506 16.7166 2.29472C16.9184 2.4184 17.0914 2.59135 17.4373 2.93726L20.0627 5.56274C20.4086 5.90865 20.5816 6.0816 20.7053 6.28343C20.8149 6.46237 20.8957 6.65746 20.9447 6.86154C21 7.09171 21 7.3363 21 7.82548V19" stroke="black" stroke-width="1.5" stroke-linecap="round" stroke-linejoin="round"/>
<path d="M11 22H14.8C15.9201 22 16.4802 22 16.908 21.782C17.2843 21.5903 17.5903 21.2843 17.782 20.908C18 20.4802 18 19.9201 18 18.8V9.82548C18 9.3363 18 9.09171 17.9447 8.86154C17.8957 8.65746 17.8149 8.46237 17.7053 8.28343C17.5816 8.0816 17.4086 7.90865 17.0627 7.56274L15.4373 5.93726C15.0914 5.59135 14.9184 5.4184 14.7166 5.29472C14.5376 5.18506 14.3425 5.10425 14.1385 5.05526C13.9083 5 13.6637 5 13.1745 5H6.2C5.07989 5 4.51984 5 4.09202 5.21799C3.71569 5.40973 3.40973 5.71569 3.21799 6.09202C3 6.51984 3 7.07989 3 8.2V13" stroke="black" stroke-width="1.5" stroke-linecap="round" stroke-linejoin="round"/>
<path d="M14 5V8.4C14 8.73137 14.2686 9 14.6 9H18" stroke="black" stroke-width="1.5" stroke-linecap="round" stroke-linejoin="round"/>
</svg>
