<svg width="24" height="24" viewBox="0 0 24 24" fill="none" xmlns="http://www.w3.org/2000/svg">
<path d="M2.87083 21.1213L4.99215 19M7.11347 16.8787L4.99215 19M4.99215 19L2.87083 16.8787M4.99215 19L7.11347 21.1213" stroke="black" stroke-width="1.5" stroke-linecap="round" stroke-linejoin="round"/>
<path d="M7 2L15.6716 2C16.202 2 16.7107 2.21071 17.0858 2.58579L20.4142 5.91421C20.7893 6.28929 21 6.79799 21 7.32843V19" stroke="black" stroke-width="1.5" stroke-linecap="round" stroke-linejoin="round"/>
<path d="M11 22H16C17.1046 22 18 21.1046 18 20V9.32843C18 8.79799 17.7893 8.28929 17.4142 7.91421L15.0858 5.58579C14.7107 5.21071 14.202 5 13.6716 5H5C3.89543 5 3 5.89543 3 7V13" stroke="black" stroke-width="1.5" stroke-linecap="round" stroke-linejoin="round"/>
<path d="M14 5.5V8.4C14 8.73137 14.2686 9 14.6 9H17.5" stroke="black" stroke-width="1.5" stroke-linecap="round" stroke-linejoin="round"/>
</svg>
