<svg width="24" height="24" viewBox="0 0 24 24" fill="none" xmlns="http://www.w3.org/2000/svg">
<path d="M20 14V4.91714C20 4.25865 20 3.92941 19.8652 3.69683C19.747 3.49278 19.5604 3.33709 19.3385 3.25725C19.0856 3.16626 18.7616 3.22515 18.1138 3.34295L10.3138 4.76113C9.84647 4.8461 9.61281 4.88858 9.43772 5.00763C9.28336 5.11258 9.16146 5.25865 9.08581 5.4293C9 5.62285 9 5.86034 9 6.33532V16" stroke="black" stroke-width="1.5" stroke-linecap="round" stroke-linejoin="round"/>
<path d="M20 16.5V14H17.5C17.0353 14 16.803 14 16.6098 14.0384C15.8164 14.1962 15.1962 14.8164 15.0384 15.6098C15 15.803 15 16.0353 15 16.5C15 16.9647 15 17.197 15.0384 17.3902C15.1962 18.1836 15.8164 18.8038 16.6098 18.9616C16.803 19 17.0353 19 17.5 19C17.9647 19 18.197 19 18.3902 18.9616C19.1836 18.8038 19.8038 18.1836 19.9616 17.3902C20 17.197 20 16.9647 20 16.5Z" stroke="black" stroke-width="1.5" stroke-linecap="round" stroke-linejoin="round"/>
<path d="M9 18.5V16H6.5C6.03534 16 5.80302 16 5.60982 16.0384C4.81644 16.1962 4.19624 16.8164 4.03843 17.6098C4 17.803 4 18.0353 4 18.5C4 18.9647 4 19.197 4.03843 19.3902C4.19624 20.1836 4.81644 20.8038 5.60982 20.9616C5.80302 21 6.03534 21 6.5 21C6.96466 21 7.19698 21 7.39018 20.9616C8.18356 20.8038 8.80376 20.1836 8.96157 19.3902C9 19.197 9 18.9647 9 18.5Z" stroke="black" stroke-width="1.5" stroke-linecap="round" stroke-linejoin="round"/>
</svg>
