<svg width="24" height="24" viewBox="0 0 24 24" fill="none" xmlns="http://www.w3.org/2000/svg">
<rect width="24" height="24" fill="white"/>
<path d="M14 11.9976C14 9.5059 11.683 7 8.85714 7C8.52241 7 7.41904 7.00001 7.14286 7.00001C4.30254 7.00001 2 9.23752 2 11.9976C2 14.376 3.70973 16.3664 6 16.8714C6.36756 16.9525 6.75006 16.9952 7.14286 16.9952" stroke="black" stroke-width="1.5" stroke-linecap="round" stroke-linejoin="round"/>
<path d="M16.8571 7C17.2499 7 17.6324 7.04279 18 7.12384C20.2903 7.62885 22 9.61921 22 11.9976C22 13.4395 21.3716 14.7388 20.3664 15.651" stroke="black" stroke-width="1.5" stroke-linecap="round" stroke-linejoin="round"/>
<path d="M10.0002 11.9976C10.0002 14.4893 12.3172 16.9952 15.1431 16.9952" stroke="black" stroke-width="1.5" stroke-linecap="round" stroke-linejoin="round"/>
<path d="M18 22.2426L20.1213 20.1213M20.1213 20.1213L22.2426 18M20.1213 20.1213L18 18M20.1213 20.1213L22.2426 22.2426" stroke="black" stroke-width="1.5" stroke-linecap="round" stroke-linejoin="round"/>
</svg>
