<svg width="24" height="24" viewBox="0 0 24 24" fill="none" xmlns="http://www.w3.org/2000/svg">
<g clip-path="url(#clip0_1_4161)">
<rect width="24" height="24" fill="white"/>
<path d="M11.7704 1.09499C11.9174 1.03409 12.0826 1.03409 12.2296 1.09499L19.5486 4.1266C19.6956 4.18749 19.8124 4.3043 19.8733 4.45132L22.9049 11.7703C22.9658 11.9173 22.9658 12.0825 22.9049 12.2295L19.8733 19.5485C19.8124 19.6955 19.6956 19.8123 19.5486 19.8732L12.2296 22.9048C12.0826 22.9657 11.9174 22.9657 11.7704 22.9048L4.45144 19.8732C4.30442 19.8123 4.18761 19.6955 4.12672 19.5485L1.09511 12.2295C1.03421 12.0825 1.03421 11.9173 1.09511 11.7703L4.12672 4.45132C4.18761 4.3043 4.30442 4.18749 4.45144 4.1266L11.7704 1.09499Z" stroke="black" stroke-width="1.5" stroke-linecap="round" stroke-linejoin="round"/>
</g>
<defs>
<clipPath id="clip0_1_4161">
<rect width="24" height="24" fill="white"/>
</clipPath>
</defs>
</svg>
