<svg width="24" height="24" viewBox="0 0 24 24" fill="none" xmlns="http://www.w3.org/2000/svg">
<rect width="24" height="24" fill="white"/>
<path d="M7.5 12.0001L5.49591 14.6722C4.91845 15.4422 4.97127 16.5142 5.6216 17.2237L9.4055 21.3516C9.78431 21.7648 10.3183 22.0001 10.8789 22.0001C11.9651 22.0001 13.7415 22.0001 15.5 22.0001C17.9 22.0001 19.5 20.0001 19.5 18.0001C19.5 18.0001 19.5 11.143 19.5 9.42871" stroke="black" stroke-width="1.5" stroke-linecap="round" stroke-linejoin="round"/>
<path d="M16.5 9.99983C16.5 9.99983 16.5 9.87471 16.5 9.4284C16.5 7.14268 19.5 7.14268 19.5 9.4284" stroke="black" stroke-width="1.5" stroke-linecap="round" stroke-linejoin="round"/>
<path d="M13.5 9.99986C13.5 9.99986 13.5 9.1782 13.5 8.28558C13.5 5.99986 16.5 5.99986 16.5 8.28558C16.5 8.50873 16.5 9.20528 16.5 9.42843C16.5 9.87475 16.5 9.99986 16.5 9.99986" stroke="black" stroke-width="1.5" stroke-linecap="round" stroke-linejoin="round"/>
<path d="M10.5 10.0002C10.5 10.0002 10.5 8.61596 10.5 7.50017C10.5 5.21446 13.5 5.21446 13.5 7.50017C13.5 7.50017 13.5 8.06273 13.5 8.28589C13.5 9.17851 13.5 10.0002 13.5 10.0002" stroke="black" stroke-width="1.5" stroke-linecap="round" stroke-linejoin="round"/>
<path d="M10.5 10C10.5 10 10.5 8.61578 10.5 7.5C10.5 6.34156 10.5 4.68968 10.5 3.49899C10.5 2.67056 9.82843 2 9 2C8.17157 2 7.5 2.67157 7.5 3.5V12V15" stroke="black" stroke-width="1.5" stroke-linecap="round" stroke-linejoin="round"/>
</svg>
