<svg width="24" height="24" viewBox="0 0 24 24" fill="none" xmlns="http://www.w3.org/2000/svg">
<rect width="24" height="24" fill="white"/>
<path d="M9 18C9 18 9.9 14.2588 12 12" stroke="black" stroke-width="1.5" stroke-linecap="round" stroke-linejoin="round"/>
<path d="M16.1857 7.24125L16.5601 11.1305C16.8031 13.6535 14.9114 15.9 12.3883 16.1429C9.91266 16.3813 7.67 14.5717 7.43162 12.0961C7.19324 9.62047 9.00691 7.42032 11.4826 7.18195L15.6293 6.78266C15.9096 6.75567 16.1587 6.96099 16.1857 7.24125Z" stroke="black" stroke-width="1.5" stroke-linecap="round" stroke-linejoin="round"/>
<path d="M21 3.6V20.4C21 20.7314 20.7314 21 20.4 21H3.6C3.26863 21 3 20.7314 3 20.4V3.6C3 3.26863 3.26863 3 3.6 3H20.4C20.7314 3 21 3.26863 21 3.6Z" stroke="black" stroke-width="1.5" stroke-linecap="round" stroke-linejoin="round"/>
</svg>
