<svg width="24" height="24" viewBox="0 0 24 24" fill="none" xmlns="http://www.w3.org/2000/svg">
<rect width="24" height="24" fill="white"/>
<path d="M9 18C9 18 9.9 14.2588 12 12" stroke="black" stroke-width="1.5" stroke-linecap="round" stroke-linejoin="round"/>
<path d="M16.1857 7.24125L16.5601 11.1305C16.8031 13.6535 14.9114 15.9 12.3883 16.1429C9.91266 16.3813 7.67 14.5717 7.43162 12.0961C7.19324 9.62047 9.00691 7.42032 11.4826 7.18195L15.6293 6.78266C15.9096 6.75567 16.1587 6.96099 16.1857 7.24125Z" stroke="black" stroke-width="1.5" stroke-linecap="round" stroke-linejoin="round"/>
<path d="M12 22C17.5228 22 22 17.5228 22 12C22 6.47715 17.5228 2 12 2C6.47715 2 2 6.47715 2 12C2 17.5228 6.47715 22 12 22Z" stroke="black" stroke-width="1.5" stroke-linecap="round" stroke-linejoin="round"/>
</svg>
