<svg width="24" height="24" viewBox="0 0 24 24" fill="none" xmlns="http://www.w3.org/2000/svg">
<path d="M20 12V6.82548C20 6.3363 20 6.09171 19.9447 5.86154C19.8957 5.65746 19.8149 5.46237 19.7053 5.28343C19.5816 5.0816 19.4086 4.90865 19.0627 4.56274L17.4373 2.93726C17.0914 2.59135 16.9184 2.4184 16.7166 2.29472C16.5376 2.18506 16.3425 2.10425 16.1385 2.05526C15.9083 2 15.6637 2 15.1745 2H7.2C6.07989 2 5.51984 2 5.09202 2.21799C4.71569 2.40973 4.40973 2.71569 4.21799 3.09202C4 3.51984 4 4.07989 4 5.2V18.8C4 19.9201 4 20.4802 4.21799 20.908C4.40973 21.2843 4.71569 21.5903 5.09202 21.782C5.51984 22 6.07989 22 7.2 22H11" stroke="black" stroke-width="1.5" stroke-linecap="round" stroke-linejoin="round"/>
<path d="M8 10H16M8 6H12M8 14H11" stroke="black" stroke-width="1.5" stroke-linecap="round" stroke-linejoin="round"/>
<path d="M20.5 20.5L22 22" stroke="black" stroke-width="1.5" stroke-linecap="round" stroke-linejoin="round"/>
<path d="M15 18C15 19.6569 16.3431 21 18 21C18.8299 21 19.581 20.663 20.1241 20.1185C20.6654 19.5758 21 18.827 21 18C21 16.3431 19.6569 15 18 15C16.3431 15 15 16.3431 15 18Z" stroke="black" stroke-width="1.5" stroke-linecap="round" stroke-linejoin="round"/>
<path d="M16 2.5V5.4C16 5.73137 16.2686 6 16.6 6H19.5" stroke="black" stroke-width="1.5" stroke-linecap="round" stroke-linejoin="round"/>
</svg>
