<svg width="24" height="24" viewBox="0 0 24 24" fill="none" xmlns="http://www.w3.org/2000/svg">
<path d="M20 12V6.82548C20 6.3363 20 6.09171 19.9447 5.86154C19.8957 5.65746 19.8149 5.46237 19.7053 5.28343C19.5816 5.0816 19.4086 4.90865 19.0627 4.56274L17.4373 2.93726C17.0914 2.59135 16.9184 2.4184 16.7166 2.29472C16.5376 2.18506 16.3425 2.10425 16.1385 2.05526C15.9083 2 15.6637 2 15.1745 2H7.2C6.07989 2 5.51984 2 5.09202 2.21799C4.71569 2.40973 4.40973 2.71569 4.21799 3.09202C4 3.51984 4 4.07989 4 5.2V18.8C4 19.9201 4 20.4802 4.21799 20.908C4.40973 21.2843 4.71569 21.5903 5.09202 21.782C5.51984 22 6.07989 22 7.2 22H11" stroke="black" stroke-width="1.5" stroke-linecap="round" stroke-linejoin="round"/>
<path d="M8 10H16M8 6H12M8 14H11" stroke="black" stroke-width="1.5" stroke-linecap="round" stroke-linejoin="round"/>
<path d="M15.4637 17.242C15.7716 17.1949 15.9255 17.1714 16.0589 17.1077C16.177 17.0514 16.2829 16.9724 16.3706 16.8752C16.4696 16.7655 16.536 16.6246 16.6689 16.3429L17.2147 15.1856C17.3314 14.9381 17.6686 14.9381 17.7853 15.1856L18.3311 16.3429C18.464 16.6246 18.5304 16.7655 18.6294 16.8752C18.7171 16.9724 18.823 17.0514 18.9411 17.1077C19.0745 17.1714 19.2284 17.1949 19.5363 17.242L20.7275 17.4243C20.9884 17.4642 21.0923 17.7998 20.9035 17.9923L20.0005 18.9128C19.7924 19.1249 19.6883 19.231 19.6211 19.3557C19.5616 19.4662 19.5234 19.5868 19.5085 19.7114C19.4917 19.8521 19.5157 19.9987 19.5638 20.292L19.7797 21.61C19.8243 21.882 19.5515 22.0895 19.3181 21.961L18.2715 21.3849C17.9898 21.2299 17.8489 21.1524 17.6999 21.122C17.568 21.095 17.432 21.095 17.3001 21.122C17.1511 21.1524 17.0102 21.2299 16.7285 21.3849L15.6819 21.961C15.4485 22.0895 15.1757 21.882 15.2203 21.61L15.4362 20.292C15.4843 19.9987 15.5083 19.8521 15.4915 19.7114C15.4766 19.5868 15.4384 19.4662 15.3789 19.3557C15.3117 19.231 15.2076 19.1249 14.9995 18.9128L14.0965 17.9923C13.9077 17.7998 14.0116 17.4642 14.2725 17.4243L15.4637 17.242Z" stroke="black" stroke-width="1.5" stroke-linecap="round" stroke-linejoin="round"/>
<path d="M16 2.5V5.4C16 5.73137 16.2686 6 16.6 6H19.5" stroke="black" stroke-width="1.5" stroke-linecap="round" stroke-linejoin="round"/>
</svg>
