<svg width="24" height="24" viewBox="0 0 24 24" fill="none" xmlns="http://www.w3.org/2000/svg">
<rect width="24" height="24" fill="white"/>
<path d="M7 22H17" stroke="black" stroke-width="1.5" stroke-linecap="round" stroke-linejoin="round"/>
<path d="M2 17V4C2 2.89543 2.89543 2 4 2H20C21.1046 2 22 2.89543 22 4V17C22 18.1046 21.1046 19 20 19H4C2.89543 19 2 18.1046 2 17Z" stroke="black" stroke-width="1.5"/>
<path d="M12.4851 6.12124L15.5455 6.88635C15.8126 6.95313 16.0011 7.19643 15.9937 7.47165C15.8176 13.9997 12 15 12 15C12 15 8.18239 13.9997 8.00629 7.47165C7.99886 7.19643 8.18737 6.95313 8.45447 6.88635L11.5149 6.12124C11.8334 6.04162 12.1666 6.04162 12.4851 6.12124Z" stroke="black" stroke-width="1.5" stroke-linecap="round" stroke-linejoin="round"/>
</svg>
