<svg width="24" height="24" viewBox="0 0 24 24" fill="none" xmlns="http://www.w3.org/2000/svg">
<rect width="24" height="24" fill="white"/>
<path d="M22 7V5C22 3.89543 21.1046 3 20 3H4C2.89543 3 2 3.89543 2 5V19C2 20.1046 2.89543 21 4 21H20C21.1046 21 22 20.1046 22 19V17" stroke="black" stroke-width="1.5" stroke-linecap="round" stroke-linejoin="round"/>
<path d="M2 12H6" stroke="black" stroke-width="1.5"/>
<path d="M6 3V21" stroke="black" stroke-width="1.5"/>
<path d="M19.25 12H11" stroke="black" stroke-width="1.5" stroke-linecap="round" stroke-linejoin="round"/>
<path d="M18.7 12L17.875 15H16.225" stroke="black" stroke-width="1.5" stroke-linecap="round" stroke-linejoin="round"/>
<path d="M17.6 12L16.5 9H14.575" stroke="black" stroke-width="1.5" stroke-linecap="round" stroke-linejoin="round"/>
<path d="M22 12.0001C22 11.247 21.3844 10.6365 20.625 10.6365C19.8656 10.6365 19.25 11.247 19.25 12.0001C19.25 12.7532 19.8656 13.3637 20.625 13.3637C21.3844 13.3637 22 12.7532 22 12.0001Z" stroke="black" stroke-width="1.5" stroke-linecap="round" stroke-linejoin="round"/>
</svg>
