<svg width="24" height="24" viewBox="0 0 24 24" fill="none" xmlns="http://www.w3.org/2000/svg">
<g clip-path="url(#clip0_1_4490)">
<rect width="24" height="24" fill="white"/>
<mask id="mask0_1_4490" style="mask-type:luminance" maskUnits="userSpaceOnUse" x="0" y="0" width="24" height="24">
<path d="M24 0H0V24H24V0Z" fill="white"/>
</mask>
<g mask="url(#mask0_1_4490)">
<path d="M17.1213 7.36398L19.2426 5.24266M19.2426 5.24266L21.364 3.12134M19.2426 5.24266L17.1213 3.12134M19.2426 5.24266L21.364 7.36398" stroke="black" stroke-width="1.5" stroke-linecap="round" stroke-linejoin="round"/>
<path d="M18.1182 14.702L14 15.5C11.2183 14.1038 9.50001 12.5 8.50001 10L9.26996 5.8699L7.81453 2H4.06361C2.93606 2 2.04815 2.93178 2.21655 4.04668C2.63696 6.83 3.87654 11.8765 7.50001 15.5C11.3052 19.3052 16.7857 20.9564 19.802 21.6127C20.9668 21.8662 22 20.9575 22 19.7655V16.1812L18.1182 14.702Z" stroke="black" stroke-width="1.5" stroke-linecap="round" stroke-linejoin="round"/>
</g>
</g>
<defs>
<clipPath id="clip0_1_4490">
<rect width="24" height="24" fill="white"/>
</clipPath>
</defs>
</svg>
