<svg width="24" height="24" viewBox="0 0 24 24" fill="none" xmlns="http://www.w3.org/2000/svg">
<rect width="24" height="24" fill="white"/>
<path d="M21.0404 12.2829L21.639 16.4732C21.8226 17.7585 20.752 18.8753 19.4601 18.7461L12.199 18.02C12.0667 18.0068 11.9333 18.0068 11.801 18.02L4.53989 18.7461C3.24801 18.8753 2.17738 17.7585 2.36099 16.4732L2.95959 12.2829C2.98639 12.0953 2.98639 11.9049 2.95959 11.7173L2.36099 7.52702C2.17738 6.24174 3.24801 5.12491 4.5399 5.2541L11.801 5.98021C11.9333 5.99344 12.0667 5.99344 12.199 5.98021L19.4601 5.2541C20.752 5.12491 21.8226 6.24174 21.639 7.52701L21.0404 11.7173C21.0136 11.9049 21.0136 12.0953 21.0404 12.2829Z" stroke="black" stroke-width="1.5" stroke-linecap="round" stroke-linejoin="round"/>
<path d="M21 6L17 9" stroke="black" stroke-width="1.5" stroke-linecap="round" stroke-linejoin="round"/>
<path d="M7 15L3 18" stroke="black" stroke-width="1.5" stroke-linecap="round" stroke-linejoin="round"/>
</svg>
