<svg width="24" height="24" viewBox="0 0 24 24" fill="none" xmlns="http://www.w3.org/2000/svg">
<rect width="24" height="24" fill="white"/>
<path d="M14 9.00989L14.01 8.99878" stroke="black" stroke-width="1.5" stroke-linecap="round" stroke-linejoin="round"/>
<path d="M8 8.00989L8.01 7.99878" stroke="black" stroke-width="1.5" stroke-linecap="round" stroke-linejoin="round"/>
<path d="M8 14.0099L8.01 13.9988" stroke="black" stroke-width="1.5" stroke-linecap="round" stroke-linejoin="round"/>
<path d="M6 18.9999L2.23626 3.00398C2.13087 2.55606 2.54815 2.1611 2.98961 2.29094L19 6.99988" stroke="black" stroke-width="1.5"/>
<path d="M22.198 8.4246C22.4324 7.48696 21.8623 6.53683 20.9247 6.30242C19.987 6.06801 19.0369 6.63809 18.8025 7.57573C18.4106 9.14311 16.9015 11.624 14.5753 13.9502C12.2743 16.2512 9.42714 18.1441 6.60672 18.795C5.66497 19.0123 5.07771 19.9519 5.29504 20.8936C5.51236 21.8354 6.45198 22.4226 7.39373 22.2053C11.0734 21.3562 14.4762 18.999 17.0502 16.4251C19.5989 13.8763 21.5898 10.8572 22.198 8.4246Z" stroke="black" stroke-width="1.5" stroke-linecap="round"/>
</svg>
