<svg width="24" height="24" viewBox="0 0 24 24" fill="none" xmlns="http://www.w3.org/2000/svg">
<rect width="24" height="24" fill="white"/>
<path d="M6 19.0007C3.57111 17.1763 2 14.2716 2 11C2 5.47715 6.47715 1 12 1C17.5228 1 22 5.47715 22 11C22 14.2716 20.4289 17.1763 18 19.0007" stroke="black" stroke-width="1.5" stroke-linecap="round" stroke-linejoin="round"/>
<path d="M6 19.0007C3.57111 17.1763 2 14.2716 2 11C2 5.47715 6.47715 1 12 1C17.5228 1 22 5.47715 22 11C22 14.2716 20.4289 17.1763 18 19.0007" stroke="black" stroke-width="1.5" stroke-linecap="round" stroke-linejoin="round"/>
<path d="M7.52779 15C6.57771 13.9385 6 12.5367 6 11C6 7.68629 8.68629 5 12 5C15.3137 5 18 7.68629 18 11C18 12.5367 17.4223 13.9385 16.4722 15" stroke="black" stroke-width="1.5" stroke-linecap="round" stroke-linejoin="round"/>
<path d="M12 13C13.1046 13 14 12.1046 14 11C14 9.89543 13.1046 9 12 9C10.8954 9 10 9.89543 10 11C10 12.1046 10.8954 13 12 13Z" stroke="black" stroke-width="1.5" stroke-linecap="round" stroke-linejoin="round"/>
<path d="M10.076 16.2826L10.8906 15.7395C11.5624 15.2916 12.4376 15.2916 13.1094 15.7395L13.924 16.2826C14.5789 16.7191 14.9168 17.4992 14.7874 18.2755L14.2785 21.3287C14.1178 22.2931 13.2834 22.9999 12.3057 22.9999H11.6943C10.7166 22.9999 9.8822 22.2931 9.72147 21.3287L9.2126 18.2755C9.08321 17.4992 9.42114 16.7191 10.076 16.2826Z" stroke="black" stroke-width="1.5" stroke-linecap="round" stroke-linejoin="round"/>
</svg>
