<svg width="24" height="24" viewBox="0 0 24 24" fill="none" xmlns="http://www.w3.org/2000/svg">
<path d="M20 12V6.82548C20 6.3363 20 6.09171 19.9447 5.86154C19.8957 5.65746 19.8149 5.46237 19.7053 5.28343C19.5816 5.0816 19.4086 4.90865 19.0627 4.56274L17.4373 2.93726C17.0914 2.59135 16.9184 2.4184 16.7166 2.29472C16.5376 2.18506 16.3425 2.10425 16.1385 2.05526C15.9083 2 15.6637 2 15.1745 2H7.2C6.07989 2 5.51984 2 5.09202 2.21799C4.71569 2.40973 4.40973 2.71569 4.21799 3.09202C4 3.51984 4 4.07989 4 5.2V18.8C4 19.9201 4 20.4802 4.21799 20.908C4.40973 21.2843 4.71569 21.5903 5.09202 21.782C5.51984 22 6.0799 22 7.2 22H13" stroke="black" stroke-width="1.5" stroke-linecap="round" stroke-linejoin="round"/>
<path d="M8 10H16M8 6H12M8 14H11" stroke="black" stroke-width="1.5" stroke-linecap="round" stroke-linejoin="round"/>
<path d="M16 2.5V5.4C16 5.73137 16.2686 6 16.6 6H19.5" stroke="black" stroke-width="1.5" stroke-linecap="round" stroke-linejoin="round"/>
<path d="M19.8938 15.1L21.7938 15.5826C22.2242 15.6919 22.4393 15.7465 22.6072 15.8797C22.746 15.9899 22.8706 16.1649 22.9292 16.3322C23.0001 16.5344 22.983 16.7345 22.9489 17.1348C22.6144 21.0614 20.7236 22.4254 19.8922 22.8398C19.8448 22.8634 19.8211 22.8752 19.6839 22.9009C19.6156 22.9137 19.3844 22.9137 19.3161 22.9009C19.1789 22.8752 19.1552 22.8634 19.1078 22.8398C18.2764 22.4254 16.3856 21.0614 16.0511 17.1348C16.017 16.7345 15.9999 16.5344 16.0708 16.3322C16.1294 16.1649 16.254 15.9899 16.3928 15.8797C16.5607 15.7465 16.7758 15.6919 17.2062 15.5826L19.1062 15.1L19.1062 15.1C19.2529 15.0628 19.3263 15.0441 19.4007 15.0367C19.4667 15.0301 19.5333 15.0301 19.5993 15.0367C19.6737 15.0441 19.7471 15.0628 19.8938 15.1Z" stroke="black" stroke-width="1.5" stroke-linecap="round" stroke-linejoin="round"/>
</svg>
