<svg width="24" height="24" viewBox="0 0 24 24" fill="none" xmlns="http://www.w3.org/2000/svg">
<rect width="24" height="24" fill="white"/>
<path d="M17.0001 20.6615C15.5292 21.5123 13.8215 21.9993 12.0001 21.9993C10.1786 21.9993 8.47093 21.5123 7.00006 20.6615L10.0001 16C10.0001 16 11.0001 16.4 12.0001 16.4C13.0001 16.4 14.0001 16 14.0001 16L17.0001 20.6615Z" stroke="black" stroke-width="1.5" stroke-linecap="round" stroke-linejoin="round"/>
<path d="M16.9976 3.33887C18.4699 4.18725 19.7455 5.42267 20.6562 7.00008C21.5669 8.57749 21.999 10.2999 21.9976 11.9991L16.4607 11.7318C16.4607 11.7318 16.3071 10.6657 15.8071 9.79972C15.3071 8.93369 14.4607 8.26767 14.4607 8.26767L16.9976 3.33887Z" stroke="black" stroke-width="1.5" stroke-linecap="round" stroke-linejoin="round"/>
<path d="M1.99825 11.9993C1.99682 10.3001 2.42894 8.57774 3.33966 7.00033C4.25038 5.42292 5.52596 4.1875 6.99825 3.33911L9.53518 8.26791C9.53518 8.26791 8.68877 8.93394 8.18877 9.79996C7.68877 10.666 7.53518 11.732 7.53518 11.732L1.99825 11.9993Z" stroke="black" stroke-width="1.5" stroke-linecap="round" stroke-linejoin="round"/>
<path d="M12.0001 13.9993C10.8955 13.9993 10.0001 13.1039 10.0001 11.9993C10.0001 10.8947 10.8955 9.99927 12.0001 9.99927C13.1046 9.99927 14.0001 10.8947 14.0001 11.9993C14.0001 13.1039 13.1046 13.9993 12.0001 13.9993Z" stroke="black" stroke-width="1.5" stroke-linecap="round" stroke-linejoin="round"/>
</svg>
