<svg width="24" height="24" viewBox="0 0 24 24" fill="none" xmlns="http://www.w3.org/2000/svg">
<rect width="24" height="24" fill="white"/>
<path d="M17.5 11.9998L19.5041 14.672C20.0815 15.4419 20.0287 16.514 19.3784 17.2234L15.5945 21.3513C15.2157 21.7646 14.6817 21.9998 14.1211 21.9998C13.0349 21.9998 11.2585 21.9998 9.5 21.9998C7.14159 21.9998 5.87758 19.4248 5.51817 18.0703C5.50559 18.0229 5.5 17.9761 5.5 17.927C5.5 17.188 5.5 11.0389 5.5 9.4284C5.5 7.14268 8.5 7.14268 8.5 9.4284C8.5 9.87471 8.5 9.99983 8.5 9.99983" stroke="black" stroke-width="1.5" stroke-linecap="round" stroke-linejoin="round"/>
<path d="M11.5 9.99986C11.5 9.99986 11.5 9.1782 11.5 8.28558C11.5 5.99986 8.5 5.99986 8.5 8.28558C8.5 8.50873 8.5 9.20528 8.5 9.42843C8.5 9.87475 8.5 9.99986 8.5 9.99986" stroke="black" stroke-width="1.5" stroke-linecap="round" stroke-linejoin="round"/>
<path d="M14.5 10.0002C14.5 10.0002 14.5 8.61596 14.5 7.50017C14.5 5.21446 11.5 5.21446 11.5 7.50017C11.5 7.50017 11.5 8.06273 11.5 8.28589C11.5 9.17851 11.5 10.0002 11.5 10.0002" stroke="black" stroke-width="1.5" stroke-linecap="round" stroke-linejoin="round"/>
<path d="M14.5 10C14.5 10 14.5 8.61578 14.5 7.5C14.5 6.34156 14.5 4.68968 14.5 3.49899C14.5 2.67056 15.1716 2 16 2C16.8284 2 17.5 2.67157 17.5 3.5V12V15" stroke="black" stroke-width="1.5" stroke-linecap="round" stroke-linejoin="round"/>
<path d="M17.5625 6.5H19.625C20.5 6.5 21 6.07843 21 5.25C21 4.42157 20.5 4 19.625 4H17.5625H14.4375H12.25C11.5596 4 11 4.55964 11 5.25V5.5C11 6.05228 11.4477 6.5 12 6.5" stroke="black" stroke-width="1.5"/>
</svg>
