<svg width="24" height="24" viewBox="0 0 24 24" fill="none" xmlns="http://www.w3.org/2000/svg">
<rect width="24" height="24" fill="white"/>
<path d="M8 9C8 9 9 8 12 8C15 8 16 9 16 9" stroke="black" stroke-width="1.5" stroke-linecap="round" stroke-linejoin="round"/>
<path d="M12 14C12.5523 14 13 13.5523 13 13C13 12.4477 12.5523 12 12 12C11.4477 12 11 12.4477 11 13C11 13.5523 11.4477 14 12 14Z" fill="black" stroke="black" stroke-width="1.5" stroke-linecap="round" stroke-linejoin="round"/>
<path d="M5 18L3.13036 4.91257C3.05646 4.39528 3.39389 3.91251 3.90398 3.79916L11.5661 2.09645C11.8519 2.03295 12.1481 2.03295 12.4339 2.09645L20.096 3.79916C20.6061 3.91251 20.9435 4.39528 20.8696 4.91256L19 18C18.9293 18.495 18.5 21.5 12 21.5C5.5 21.5 5.07071 18.495 5 18Z" stroke="black" stroke-width="1.5" stroke-linecap="round" stroke-linejoin="round"/>
</svg>
