<svg width="24" height="24" viewBox="0 0 24 24" fill="none" xmlns="http://www.w3.org/2000/svg">
<rect width="24" height="24" fill="white"/>
<path d="M3.57143 8.00004C3.39038 6.73267 3.23403 5.63827 3.13088 4.91618C3.05698 4.39889 3.39389 3.91251 3.90398 3.79916L11.5661 2.09645C11.8519 2.03295 12.1481 2.03295 12.4339 2.09645L20.096 3.79916C20.6061 3.91251 20.943 4.39889 20.8691 4.91618C20.766 5.63827 20.6096 6.73267 20.4286 8.00004M3.57143 8.00004H20.4286M3.57143 8.00004C3.87997 10.1598 4.26028 12.822 4.57143 15M20.4286 8.00004C20.12 10.1598 19.7397 12.822 19.4286 15M4.57143 15C4.74331 16.2032 4.89409 17.2586 5 18C5.07071 18.495 5.5 21.5 12 21.5C18.5 21.5 18.9293 18.495 19 18C19.1059 17.2586 19.2567 16.2032 19.4286 15M4.57143 15H19.4286" stroke="black" stroke-width="1.5" stroke-linecap="round" stroke-linejoin="round"/>
</svg>
