<svg width="24" height="24" viewBox="0 0 24 24" fill="none" xmlns="http://www.w3.org/2000/svg">
<rect width="24" height="24" fill="white"/>
<path d="M3 9V19C3 20.1046 3.89543 21 5 21H19C20.1046 21 21 20.1046 21 19V9" stroke="black" stroke-width="1.5"/>
<path d="M20.485 3H16.4933L16.9933 8C16.9933 8 17.9933 9 19.4933 9C20.5703 9 21.3036 8.48445 21.6316 8.1937C21.7623 8.07782 21.8101 7.90091 21.7814 7.72861L21.0768 3.50136C21.0286 3.21205 20.7783 3 20.485 3Z" stroke="black" stroke-width="1.5"/>
<path d="M16.4933 3L16.9933 8C16.9933 8 15.9933 9 14.4933 9C12.9933 9 11.9933 8 11.9933 8V3H16.4933Z" stroke="black" stroke-width="1.5"/>
<path d="M11.9933 3V8C11.9933 8 10.9933 9 9.49329 9C7.99329 9 6.99329 8 6.99329 8L7.49329 3H11.9933Z" stroke="black" stroke-width="1.5"/>
<path d="M7.4933 3H3.50157C3.20827 3 2.95796 3.21205 2.90974 3.50136L2.20519 7.72862C2.17648 7.90091 2.22431 8.07782 2.35501 8.1937C2.68293 8.48445 3.41625 9 4.49328 9C5.99328 9 6.9933 8 6.9933 8L7.4933 3Z" stroke="black" stroke-width="1.5"/>
</svg>
