<svg width="24" height="24" viewBox="0 0 24 24" fill="none" xmlns="http://www.w3.org/2000/svg">
<rect width="24" height="24" fill="white"/>
<path d="M1 13.8571V10.1429C1 9.03828 1.89543 8.14285 3 8.14285H5.9C6.09569 8.14285 6.28708 8.08543 6.45046 7.97771L12.4495 4.02227C13.1144 3.58389 14 4.06074 14 4.85713V19.1429C14 19.9392 13.1144 20.4161 12.4495 19.9777L6.45046 16.0223C6.28708 15.9146 6.09569 15.8571 5.9 15.8571H3C1.89543 15.8571 1 14.9617 1 13.8571Z" stroke="black" stroke-width="1.5"/>
<path d="M17.5 7.5C17.5 7.5 19 9 19 11.5C19 14 17.5 15.5 17.5 15.5" stroke="black" stroke-width="1.5" stroke-linecap="round" stroke-linejoin="round"/>
<path d="M20.5 4.5C20.5 4.5 23 7 23 11.5C23 16 20.5 18.5 20.5 18.5" stroke="black" stroke-width="1.5" stroke-linecap="round" stroke-linejoin="round"/>
</svg>
