<svg width="28" height="20" viewBox="0 0 28 20" fill="none" xmlns="http://www.w3.org/2000/svg">
<path d="M1 10.6571V9.34286C1 8.22275 1 7.6627 1.21799 7.23488C1.40973 6.85855 1.71569 6.55259 2.09202 6.36084C2.51984 6.14286 3.0799 6.14286 4.2 6.14286H5.72C5.89844 6.14286 5.98766 6.14286 6.07398 6.12761C6.15061 6.11407 6.22539 6.09163 6.29681 6.06076C6.37727 6.02597 6.45176 5.97686 6.60073 5.87864L11.5193 2.63565C12.3258 2.10388 12.729 1.838 13.0632 1.85914C13.3543 1.87756 13.6228 2.02217 13.7984 2.25506C14 2.52236 14 3.00538 14 3.97143V16.0286C14 16.9946 14 17.4776 13.7984 17.7449C13.6228 17.9778 13.3543 18.1224 13.0632 18.1409C12.729 18.162 12.3258 17.8961 11.5193 17.3644L6.60073 14.1214L6.60073 14.1214C6.45176 14.0231 6.37727 13.974 6.29681 13.9392C6.22539 13.9084 6.15061 13.8859 6.07398 13.8724C5.98766 13.8571 5.89844 13.8571 5.72 13.8571H4.2C3.0799 13.8571 2.51984 13.8571 2.09202 13.6392C1.71569 13.4474 1.40973 13.1414 1.21799 12.7651C1 12.3373 1 11.7772 1 10.6571Z" stroke="black" stroke-width="1.5"/>
<path d="M17 6C17 6 18.5 7.5 18.5 10C18.5 12.5 17 14 17 14" stroke="black" stroke-width="1.5" stroke-linecap="round" stroke-linejoin="round"/>
<path d="M20 3C20 3 22.5 5.5 22.5 10C22.5 14.5 20 17 20 17" stroke="black" stroke-width="1.5" stroke-linecap="round" stroke-linejoin="round"/>
<path d="M24 1C24 1 27 4.21429 27 10C27 15.7857 24 19 24 19" stroke="black" stroke-width="1.5" stroke-linecap="round" stroke-linejoin="round"/>
</svg>
