<svg width="24" height="24" viewBox="0 0 24 24" fill="none" xmlns="http://www.w3.org/2000/svg">
<rect width="24" height="24" fill="white"/>
<path d="M18 7.5L18.9187 7.65312C20.0497 7.84162 20.791 8.94046 20.5423 10.0598L20.0143 12.4357C20.0048 12.4784 20 12.5223 20 12.5661C20 15.1904 20 17.5 20 17.5C20 19.5 18.4 21.5 16 21.5C14.1259 21.5 11.0119 21.5 9.41978 21.5C8.83593 21.5 8.28131 21.2449 7.90135 20.8016L3.35287 15.495C2.8581 14.9178 2.84374 14.0703 3.31867 13.4767C3.93437 12.707 5.09623 12.6814 5.74525 13.4231L7.99999 16V12.5" stroke="black" stroke-width="1.5" stroke-linecap="round" stroke-linejoin="round"/>
<path d="M9 5L8.20966 5.13172C7.03189 5.32802 6.28739 6.50588 6.61542 7.65395L8 12.5" stroke="black" stroke-width="1.5" stroke-linecap="round" stroke-linejoin="round"/>
<path d="M11 12.5001L8.92263 4.60607C8.69579 3.74409 9.25886 2.87361 10.1381 2.72708C10.9097 2.59847 11.6523 3.07882 11.8514 3.83535L14 12.0001" stroke="black" stroke-width="1.5" stroke-linecap="round" stroke-linejoin="round"/>
<path d="M17 12.5L18 7.49997L18.2475 6.01512C18.3869 5.17833 17.8216 4.38691 16.9848 4.24744C16.16 4.10997 15.3767 4.6576 15.2226 5.47952L14 12" stroke="black" stroke-width="1.5" stroke-linecap="round" stroke-linejoin="round"/>
</svg>
