<svg width="24" height="24" viewBox="0 0 24 24" fill="none" xmlns="http://www.w3.org/2000/svg">
<rect width="24" height="24" fill="white"/>
<path d="M16.4724 20.0001H4.1C3.76863 20.0001 3.5 19.7315 3.5 19.4001V9.60011C3.5 9.26874 3.76863 9.00011 4.1 9.00011H6.86762C7.57015 9.00011 8.22116 8.63151 8.5826 8.0291L11.293 3.51172C11.8779 2.53699 13.2554 2.44433 13.9655 3.33197C14.3002 3.75036 14.4081 4.30646 14.2541 4.81967L13.2317 8.2277C13.1162 8.61267 13.4045 9.00011 13.8064 9.00011H18.3815C19.7002 9.00011 20.658 10.2541 20.311 11.5263L18.4019 18.5263C18.1646 19.3965 17.3743 20.0001 16.4724 20.0001Z" stroke="black" stroke-width="1.5" stroke-linecap="round"/>
<path d="M7 20V9" stroke="black" stroke-width="1.5" stroke-linecap="round" stroke-linejoin="round"/>
</svg>
