<svg width="24" height="24" viewBox="0 0 24 24" fill="none" xmlns="http://www.w3.org/2000/svg">
<rect width="24" height="24" fill="white"/>
<path d="M2 5H9M9 5H13.5M9 5V3M16 5H13.5M13.5 5C12.6795 7.73513 10.9612 10.3206 9 12.5929M9 12.5929C7.376 14.4744 5.58541 16.1411 4 17.5M9 12.5929C8 11.5 6.4 9.3 6 8.5M9 12.5929L12 15.5" stroke="black" stroke-width="1.5" stroke-linecap="round" stroke-linejoin="round"/>
<path d="M13.5 21L14.6429 18M14.6429 18L17.5 10.5L20.3571 18M14.6429 18H20.3571M21.5 21L20.3571 18" stroke="black" stroke-width="1.5" stroke-linecap="round" stroke-linejoin="round"/>
</svg>
