<svg width="24" height="24" viewBox="0 0 24 24" fill="none" xmlns="http://www.w3.org/2000/svg">
<g clip-path="url(#clip0_1_6148)">
<rect width="24" height="24" fill="white"/>
<mask id="mask0_1_6148" style="mask-type:luminance" maskUnits="userSpaceOnUse" x="0" y="0" width="24" height="24">
<path d="M24 0H0V24H24V0Z" fill="white"/>
</mask>
<g mask="url(#mask0_1_6148)">
<path d="M18.6213 12.1213L20.7426 9.99998M20.7426 9.99998L22.864 7.87866M20.7426 9.99998L18.6213 7.87866M20.7426 9.99998L22.864 12.1213" stroke="black" stroke-width="1.5" stroke-linecap="round" stroke-linejoin="round"/>
<path d="M1 20V19C1 15.134 4.13401 12 8 12C11.866 12 15 15.134 15 19V20" stroke="black" stroke-width="1.5" stroke-linecap="round" stroke-linejoin="round"/>
<path d="M8 12C10.2091 12 12 10.2091 12 8C12 5.79086 10.2091 4 8 4C5.79086 4 4 5.79086 4 8C4 10.2091 5.79086 12 8 12Z" stroke="black" stroke-width="1.5" stroke-linecap="round" stroke-linejoin="round"/>
</g>
</g>
<defs>
<clipPath id="clip0_1_6148">
<rect width="24" height="24" fill="white"/>
</clipPath>
</defs>
</svg>
