<svg width="24" height="24" viewBox="0 0 24 24" fill="none" xmlns="http://www.w3.org/2000/svg">
<rect width="24" height="24" fill="white"/>
<path d="M21 3.6V20.4C21 20.7314 20.7314 21 20.4 21H3.6C3.26863 21 3 20.7314 3 20.4V3.6C3 3.26863 3.26863 3 3.6 3H20.4C20.7314 3 21 3.26863 21 3.6Z" stroke="black" stroke-width="1.5" stroke-linecap="round" stroke-linejoin="round"/>
<path d="M14.5 10.5C12.75 12.3824 11 17 11 17C11 17 8.5 10.5 6 9" stroke="black" stroke-width="1.5" stroke-linecap="round" stroke-linejoin="round"/>
<path d="M18.0155 6.73005L18.3121 9.81002C18.5045 11.8081 17.0064 13.5871 15.0083 13.7795C13.0478 13.9683 11.2718 12.5352 11.083 10.5747C10.8942 8.6142 12.3305 6.87186 14.291 6.68308L17.5749 6.36688C17.7969 6.34551 17.9941 6.50811 18.0155 6.73005Z" stroke="black" stroke-width="1.5" stroke-linecap="round" stroke-linejoin="round"/>
</svg>
