<svg width="24" height="24" viewBox="0 0 24 24" fill="none" xmlns="http://www.w3.org/2000/svg">
<rect width="24" height="24" fill="white"/>
<path d="M14.5 11.5C12.75 13.3824 11 18 11 18C11 18 8.5 11.5 6 10" stroke="black" stroke-width="1.5" stroke-linecap="round" stroke-linejoin="round"/>
<path d="M18.0155 7.73005L18.3121 10.81C18.5045 12.8081 17.0064 14.5871 15.0083 14.7795C13.0478 14.9683 11.2718 13.5352 11.083 11.5747C10.8942 9.6142 12.3305 7.87186 14.291 7.68308L17.5749 7.36688C17.7969 7.34551 17.9941 7.50811 18.0155 7.73005Z" stroke="black" stroke-width="1.5" stroke-linecap="round" stroke-linejoin="round"/>
<path d="M12 22C17.5228 22 22 17.5228 22 12C22 6.47715 17.5228 2 12 2C6.47715 2 2 6.47715 2 12C2 17.5228 6.47715 22 12 22Z" stroke="black" stroke-width="1.5" stroke-linecap="round" stroke-linejoin="round"/>
</svg>
