<svg width="24" height="24" viewBox="0 0 24 24" fill="none" xmlns="http://www.w3.org/2000/svg">
<rect width="24" height="24" fill="white"/>
<path d="M2 20V19C2 15.134 5.13401 12 9 12" stroke="black" stroke-width="1.5" stroke-linecap="round" stroke-linejoin="round"/>
<path d="M15.8038 12.3134C16.4456 11.6087 17.5544 11.6087 18.1962 12.3134C18.5206 12.6696 18.9868 12.8627 19.468 12.8402C20.4201 12.7957 21.2042 13.5798 21.1597 14.5319C21.1372 15.0131 21.3303 15.4793 21.6865 15.8037C22.3912 16.4455 22.3912 17.5543 21.6865 18.1961C21.3303 18.5205 21.1372 18.9867 21.1597 19.4679C21.2042 20.42 20.4201 21.2041 19.468 21.1596C18.9868 21.1371 18.5206 21.3302 18.1962 21.6864C17.5544 22.3911 16.4456 22.3911 15.8038 21.6864C15.4794 21.3302 15.0132 21.1371 14.532 21.1596C13.5799 21.2041 12.7958 20.42 12.8403 19.4679C12.8628 18.9867 12.6697 18.5205 12.3135 18.1961C11.6088 17.5543 11.6088 16.4455 12.3135 15.8037C12.6697 15.4793 12.8628 15.0131 12.8403 14.5319C12.7958 13.5798 13.5799 12.7957 14.532 12.8402C15.0132 12.8627 15.4794 12.6696 15.8038 12.3134Z" stroke="black" stroke-width="1.5"/>
<path d="M15.3636 17.0001L16.4546 18.091L18.6364 15.9092" stroke="black" stroke-width="1.5" stroke-linecap="round" stroke-linejoin="round"/>
<path d="M9 12C11.2091 12 13 10.2091 13 8C13 5.79086 11.2091 4 9 4C6.79086 4 5 5.79086 5 8C5 10.2091 6.79086 12 9 12Z" stroke="black" stroke-width="1.5" stroke-linecap="round" stroke-linejoin="round"/>
</svg>
