<svg width="24" height="24" viewBox="0 0 24 24" fill="none" xmlns="http://www.w3.org/2000/svg">
<rect width="24" height="24" fill="white"/>
<path d="M2 12H4" stroke="black" stroke-width="1.5" stroke-linecap="round" stroke-linejoin="round"/>
<path d="M20 12H22" stroke="black" stroke-width="1.5" stroke-linecap="round" stroke-linejoin="round"/>
<path d="M3 20.0099L3.01 19.9988" stroke="black" stroke-width="1.5" stroke-linecap="round" stroke-linejoin="round"/>
<path d="M6 16.0099L6.01 15.9988" stroke="black" stroke-width="1.5" stroke-linecap="round" stroke-linejoin="round"/>
<path d="M9 20.0099L9.01 19.9988" stroke="black" stroke-width="1.5" stroke-linecap="round" stroke-linejoin="round"/>
<path d="M15 20.0099L15.01 19.9988" stroke="black" stroke-width="1.5" stroke-linecap="round" stroke-linejoin="round"/>
<path d="M18 16.0099L18.01 15.9988" stroke="black" stroke-width="1.5" stroke-linecap="round" stroke-linejoin="round"/>
<path d="M21 20.0099L21.01 19.9988" stroke="black" stroke-width="1.5" stroke-linecap="round" stroke-linejoin="round"/>
<path d="M12.3962 3.39631L15.5 6.50008C17.433 8.43308 17.433 11.5671 15.5 13.5001C13.567 15.4331 10.433 15.4331 8.50001 13.5001C6.56701 11.5671 6.56701 8.43308 8.50001 6.50008L11.6038 3.3963C11.8226 3.17747 12.1774 3.17747 12.3962 3.39631Z" stroke="black" stroke-width="1.5" stroke-linecap="round" stroke-linejoin="round"/>
</svg>
